<svg width="683" height="602" viewBox="0 0 683 602" fill="none" xmlns="http://www.w3.org/2000/svg">
<g opacity="0.7">
<g opacity="0.5">
<path d="M406.9 381.423V443.283H394.17C394.3 440.073 394.37 436.693 394.37 433.203C394.37 412.343 391.92 395.433 388.9 395.433C385.88 395.433 383.43 412.343 383.43 433.203C383.43 436.693 383.5 440.073 383.62 443.283H379.88C380 440.073 380.07 436.693 380.07 433.203C380.07 412.343 377.63 395.433 374.6 395.433C371.57 395.433 369.13 412.343 369.13 433.203C369.13 436.693 369.2 440.073 369.33 443.283H360V381.423H406.9Z" fill="#2D2D84"/>
<g opacity="0.4">
<path d="M458.89 342.873L466.63 357.143L426.5 442.643H476.66V319.983L458.89 342.873Z" fill="#2D2D84"/>
<path d="M470.61 389.343C470.806 389.343 470.995 389.265 471.133 389.126C471.272 388.987 471.35 388.799 471.35 388.603V376.003C471.347 375.808 471.268 375.623 471.13 375.486C470.991 375.35 470.805 375.273 470.61 375.273C470.514 375.273 470.419 375.292 470.331 375.329C470.242 375.365 470.162 375.419 470.094 375.487C470.026 375.555 469.972 375.635 469.936 375.724C469.899 375.812 469.88 375.907 469.88 376.003V388.603C469.88 388.798 469.957 388.984 470.093 389.123C470.23 389.261 470.415 389.34 470.61 389.343Z" fill="#D063E0"/>
<path d="M458.86 413.003C458.957 413.004 459.053 412.986 459.142 412.95C459.232 412.914 459.314 412.861 459.383 412.793C459.452 412.725 459.506 412.644 459.544 412.555C459.581 412.465 459.6 412.37 459.6 412.273V399.653C459.6 399.556 459.581 399.46 459.544 399.371C459.506 399.282 459.452 399.201 459.383 399.133C459.314 399.065 459.232 399.012 459.142 398.976C459.053 398.939 458.957 398.922 458.86 398.923C458.666 398.923 458.481 399 458.344 399.137C458.207 399.274 458.13 399.459 458.13 399.653V412.293C458.135 412.483 458.214 412.664 458.351 412.796C458.487 412.929 458.67 413.003 458.86 413.003Z" fill="#D063E0"/>
<path d="M463.06 425.803C463.254 425.803 463.439 425.726 463.576 425.589C463.713 425.452 463.79 425.267 463.79 425.073V386.873C463.79 386.777 463.771 386.682 463.734 386.594C463.698 386.505 463.644 386.425 463.576 386.357C463.508 386.289 463.428 386.235 463.339 386.198C463.251 386.162 463.156 386.143 463.06 386.143C462.865 386.143 462.679 386.219 462.54 386.356C462.402 386.493 462.323 386.678 462.32 386.873V425.073C462.323 425.267 462.402 425.453 462.54 425.59C462.679 425.726 462.865 425.803 463.06 425.803Z" fill="#D063E0"/>
</g>
<g opacity="0.4">
<path d="M194.22 383.763L192.29 326.343H216.46L214.53 391.513L194.22 383.763Z" fill="#2D2D84"/>
<path d="M214.53 404.303V459.433H194.22V391.513L214.53 404.303Z" fill="#2D2D84"/>
<path d="M198.02 411.813H211.38V376.453H198.02V411.813Z" fill="#2D2D84"/>
<path d="M196.19 371.783C196.104 371.784 196.018 371.768 195.938 371.736C195.858 371.704 195.785 371.657 195.724 371.596C195.663 371.536 195.614 371.463 195.58 371.384C195.547 371.304 195.53 371.219 195.53 371.133V334.133C195.529 334.046 195.545 333.959 195.578 333.879C195.61 333.798 195.659 333.725 195.72 333.663C195.782 333.602 195.855 333.553 195.936 333.52C196.017 333.488 196.103 333.472 196.19 333.473C196.276 333.473 196.362 333.49 196.441 333.523C196.521 333.557 196.593 333.605 196.653 333.667C196.714 333.728 196.761 333.801 196.793 333.881C196.826 333.961 196.841 334.047 196.84 334.133V371.133C196.84 371.305 196.772 371.471 196.65 371.592C196.528 371.714 196.362 371.783 196.19 371.783Z" fill="#44BDE2"/>
<path d="M207.54 382.403C207.454 382.403 207.368 382.386 207.289 382.352C207.209 382.319 207.137 382.27 207.077 382.209C207.016 382.148 206.969 382.075 206.937 381.995C206.905 381.915 206.889 381.829 206.89 381.743V344.743C206.89 344.57 206.958 344.405 207.08 344.283C207.202 344.161 207.368 344.093 207.54 344.093C207.713 344.093 207.88 344.161 208.003 344.283C208.127 344.404 208.197 344.57 208.2 344.743V381.743C208.2 381.918 208.13 382.086 208.007 382.21C207.883 382.333 207.715 382.403 207.54 382.403Z" fill="#44BDE2"/>
<path d="M207.54 450.433C207.368 450.433 207.202 450.364 207.08 450.243C206.958 450.121 206.89 449.955 206.89 449.783V412.783C206.89 412.61 206.958 412.443 207.08 412.32C207.201 412.196 207.367 412.126 207.54 412.123C207.714 412.126 207.881 412.196 208.004 412.319C208.127 412.442 208.197 412.609 208.2 412.783V449.783C208.197 449.956 208.127 450.122 208.003 450.243C207.88 450.365 207.713 450.433 207.54 450.433Z" fill="#44BDE2"/>
<path d="M201.3 365.233C201.128 365.233 200.962 365.164 200.84 365.042C200.718 364.921 200.65 364.755 200.65 364.583V353.283C200.65 353.11 200.718 352.945 200.84 352.823C200.962 352.701 201.128 352.633 201.3 352.633C201.386 352.632 201.472 352.647 201.552 352.679C201.632 352.712 201.705 352.759 201.766 352.82C201.828 352.88 201.876 352.952 201.91 353.032C201.943 353.111 201.96 353.197 201.96 353.283V364.583C201.96 364.669 201.943 364.754 201.91 364.834C201.876 364.913 201.828 364.986 201.766 365.046C201.705 365.107 201.632 365.154 201.552 365.186C201.472 365.218 201.386 365.234 201.3 365.233Z" fill="#44BDE2"/>
<path d="M201.3 429.583C201.127 429.58 200.961 429.51 200.84 429.386C200.718 429.263 200.65 429.096 200.65 428.923V417.633C200.649 417.547 200.665 417.461 200.697 417.381C200.729 417.301 200.776 417.228 200.837 417.167C200.897 417.105 200.969 417.057 201.049 417.023C201.128 416.99 201.214 416.973 201.3 416.973C201.387 416.972 201.473 416.988 201.554 417.02C201.635 417.053 201.708 417.102 201.77 417.163C201.831 417.225 201.88 417.298 201.913 417.379C201.945 417.459 201.961 417.546 201.96 417.633V428.923C201.96 429.098 201.89 429.266 201.767 429.39C201.643 429.513 201.475 429.583 201.3 429.583Z" fill="#44BDE2"/>
</g>
<g opacity="0.4">
<path d="M310.42 416.353L312.22 469.893H289.68L291.48 409.133L310.42 416.353Z" fill="#2D2D84"/>
<path d="M291.48 397.203V345.803H310.42V409.133L291.48 397.203Z" fill="#2D2D84"/>
<path d="M306.88 390.203H294.42V423.173H306.88V390.203Z" fill="#2D2D84"/>
<path d="M308.59 427.533C308.752 427.533 308.907 427.597 309.021 427.712C309.136 427.826 309.2 427.981 309.2 428.143V462.643C309.2 462.805 309.136 462.96 309.021 463.074C308.907 463.189 308.752 463.253 308.59 463.253C308.429 463.25 308.275 463.185 308.162 463.071C308.048 462.958 307.983 462.804 307.98 462.643V428.143C307.98 427.981 308.044 427.826 308.159 427.712C308.273 427.597 308.428 427.533 308.59 427.533Z" fill="#44BDE2"/>
<path d="M298 417.633C298.08 417.633 298.159 417.649 298.233 417.679C298.307 417.71 298.375 417.755 298.431 417.812C298.488 417.868 298.533 417.936 298.564 418.01C298.594 418.084 298.61 418.163 298.61 418.243V452.743C298.61 452.823 298.594 452.902 298.564 452.977C298.533 453.051 298.488 453.118 298.431 453.174C298.375 453.231 298.307 453.276 298.233 453.307C298.159 453.337 298.08 453.353 298 453.353C297.839 453.35 297.685 453.285 297.572 453.172C297.458 453.058 297.393 452.904 297.39 452.743V418.243C297.39 418.081 297.454 417.926 297.569 417.812C297.683 417.697 297.838 417.633 298 417.633Z" fill="#44BDE2"/>
<path d="M298 354.193C298.08 354.193 298.159 354.209 298.233 354.239C298.307 354.27 298.375 354.315 298.431 354.372C298.488 354.428 298.533 354.496 298.564 354.57C298.594 354.644 298.61 354.723 298.61 354.803V389.303C298.61 389.383 298.594 389.462 298.564 389.536C298.533 389.61 298.488 389.678 298.431 389.734C298.375 389.791 298.307 389.836 298.233 389.867C298.159 389.897 298.08 389.913 298 389.913C297.838 389.913 297.683 389.849 297.569 389.734C297.454 389.62 297.39 389.465 297.39 389.303V354.803C297.393 354.642 297.458 354.488 297.572 354.375C297.685 354.261 297.839 354.196 298 354.193Z" fill="#44BDE2"/>
<path d="M303.82 433.633C303.9 433.633 303.979 433.649 304.053 433.679C304.127 433.71 304.195 433.755 304.251 433.812C304.308 433.868 304.353 433.936 304.384 434.01C304.414 434.084 304.43 434.163 304.43 434.243V444.783C304.43 444.945 304.366 445.1 304.251 445.214C304.137 445.329 303.982 445.393 303.82 445.393C303.658 445.393 303.503 445.329 303.389 445.214C303.274 445.1 303.21 444.945 303.21 444.783V434.243C303.21 434.163 303.226 434.084 303.256 434.01C303.287 433.936 303.332 433.868 303.389 433.812C303.445 433.755 303.513 433.71 303.587 433.679C303.661 433.649 303.74 433.633 303.82 433.633Z" fill="#44BDE2"/>
<path d="M303.82 373.643C303.982 373.643 304.137 373.707 304.251 373.822C304.366 373.936 304.43 374.091 304.43 374.253V384.783C304.43 384.945 304.366 385.1 304.251 385.214C304.137 385.329 303.982 385.393 303.82 385.393C303.658 385.393 303.503 385.329 303.389 385.214C303.274 385.1 303.21 384.945 303.21 384.783V374.253C303.21 374.091 303.274 373.936 303.389 373.822C303.503 373.707 303.658 373.643 303.82 373.643Z" fill="#44BDE2"/>
</g>
<g opacity="0.4">
<path d="M271.61 416.353L273.41 469.893H250.87L252.67 409.133L271.61 416.353Z" fill="#2D2D84"/>
<path d="M252.67 397.203V345.803H271.61V409.133L252.67 397.203Z" fill="#2D2D84"/>
<path d="M268.07 390.203H255.61V423.173H268.07V390.203Z" fill="#2D2D84"/>
<path d="M269.78 427.533C269.942 427.533 270.097 427.597 270.211 427.712C270.326 427.826 270.39 427.981 270.39 428.143V462.643C270.39 462.805 270.326 462.96 270.211 463.074C270.097 463.189 269.942 463.253 269.78 463.253C269.619 463.25 269.465 463.185 269.352 463.071C269.238 462.958 269.173 462.804 269.17 462.643V428.143C269.17 427.981 269.234 427.826 269.349 427.712C269.463 427.597 269.618 427.533 269.78 427.533Z" fill="#44BDE2"/>
<path d="M259.19 417.633C259.352 417.633 259.507 417.697 259.621 417.812C259.736 417.926 259.8 418.081 259.8 418.243V452.743C259.8 452.905 259.736 453.06 259.621 453.174C259.507 453.289 259.352 453.353 259.19 453.353C259.029 453.35 258.875 453.285 258.762 453.172C258.648 453.058 258.583 452.904 258.58 452.743V418.243C258.58 418.081 258.644 417.926 258.759 417.812C258.873 417.697 259.028 417.633 259.19 417.633Z" fill="#44BDE2"/>
<path d="M259.19 354.193C259.352 354.193 259.507 354.257 259.621 354.372C259.736 354.486 259.8 354.641 259.8 354.803V389.303C259.8 389.465 259.736 389.62 259.621 389.734C259.507 389.849 259.352 389.913 259.19 389.913C259.028 389.913 258.873 389.849 258.759 389.734C258.644 389.62 258.58 389.465 258.58 389.303V354.803C258.583 354.642 258.648 354.488 258.762 354.375C258.875 354.261 259.029 354.196 259.19 354.193Z" fill="#44BDE2"/>
<path d="M265 433.633C265.08 433.633 265.159 433.649 265.233 433.679C265.307 433.71 265.375 433.755 265.431 433.812C265.488 433.868 265.533 433.936 265.564 434.01C265.594 434.084 265.61 434.163 265.61 434.243V444.783C265.61 444.945 265.546 445.1 265.431 445.214C265.317 445.329 265.162 445.393 265 445.393C264.92 445.393 264.841 445.377 264.767 445.347C264.693 445.316 264.625 445.271 264.569 445.214C264.512 445.158 264.467 445.09 264.436 445.016C264.406 444.942 264.39 444.863 264.39 444.783V434.243C264.39 434.163 264.406 434.084 264.436 434.01C264.467 433.936 264.512 433.868 264.569 433.812C264.625 433.755 264.693 433.71 264.767 433.679C264.841 433.649 264.92 433.633 265 433.633Z" fill="#44BDE2"/>
<path d="M265 373.643C265.162 373.643 265.317 373.707 265.431 373.822C265.546 373.936 265.61 374.091 265.61 374.253V384.783C265.61 384.945 265.546 385.1 265.431 385.214C265.317 385.329 265.162 385.393 265 385.393C264.92 385.393 264.841 385.377 264.767 385.347C264.693 385.316 264.625 385.271 264.569 385.214C264.512 385.158 264.467 385.09 264.436 385.016C264.406 384.942 264.39 384.863 264.39 384.783V374.253C264.39 374.173 264.406 374.094 264.436 374.02C264.467 373.946 264.512 373.878 264.569 373.822C264.625 373.765 264.693 373.72 264.767 373.689C264.841 373.659 264.92 373.643 265 373.643Z" fill="#44BDE2"/>
</g>
<g opacity="0.4">
<path d="M75.19 368.543H79.3C79.3 414.763 87.72 450.033 87.72 450.033H66.72C66.72 450.033 75.19 414.763 75.19 368.543Z" fill="#2D2D84"/>
<path d="M77.24 381.313C88.3244 381.313 97.31 376.697 97.31 371.003C97.31 365.309 88.3244 360.693 77.24 360.693C66.1557 360.693 57.17 365.309 57.17 371.003C57.17 376.697 66.1557 381.313 77.24 381.313Z" fill="#2D2D84"/>
<path d="M86.3 370.573C86.3013 370.651 86.2871 370.729 86.258 370.802C86.229 370.874 86.1857 370.941 86.1308 370.997C86.0759 371.052 86.0104 371.097 85.9381 371.127C85.8659 371.157 85.7883 371.173 85.71 371.173H63.71C63.5509 371.173 63.3983 371.11 63.2858 370.997C63.1732 370.885 63.11 370.732 63.11 370.573C63.11 370.495 63.1256 370.417 63.1559 370.345C63.1861 370.273 63.2305 370.207 63.2863 370.152C63.3422 370.097 63.4084 370.054 63.4812 370.025C63.5539 369.996 63.6317 369.982 63.71 369.983H85.71C85.7879 369.982 85.8652 369.996 85.9374 370.025C86.0096 370.054 86.0752 370.098 86.1302 370.153C86.1853 370.208 86.2287 370.273 86.2579 370.345C86.287 370.418 86.3014 370.495 86.3 370.573Z" fill="#D063E0"/>
</g>
<path d="M268 437.813C268 437.813 127.87 416.003 79.77 387.573C31.67 359.143 103.48 346.573 103.48 346.573L106.3 333.443C106.3 333.443 7.40999 338.143 36 380.683C64.59 423.223 268 442.523 268 442.523V437.813Z" fill="#2D2D84"/>
<path d="M103.48 350.683L100.7 268.153H135.44L132.66 361.823L103.48 350.683Z" fill="#2D2D84"/>
<path d="M132.66 380.203V459.433H103.48V361.823L132.66 380.203Z" fill="#2D2D84"/>
<path d="M108.92 390.993H128.13V340.163H108.92V390.993Z" fill="#2D2D84"/>
<path d="M106.3 333.463C106.051 333.463 105.812 333.364 105.635 333.188C105.459 333.011 105.36 332.772 105.36 332.523V279.343C105.36 279.094 105.459 278.855 105.635 278.678C105.812 278.502 106.051 278.403 106.3 278.403C106.549 278.403 106.788 278.502 106.965 278.678C107.141 278.855 107.24 279.094 107.24 279.343V332.523C107.24 332.772 107.141 333.011 106.965 333.188C106.788 333.364 106.549 333.463 106.3 333.463Z" fill="#44BDE2"/>
<path d="M122.62 348.723C122.371 348.723 122.132 348.624 121.955 348.448C121.779 348.271 121.68 348.032 121.68 347.783V294.603C121.68 294.354 121.779 294.115 121.955 293.938C122.132 293.762 122.371 293.663 122.62 293.663C122.869 293.663 123.108 293.762 123.285 293.938C123.461 294.115 123.56 294.354 123.56 294.603V347.783C123.56 348.032 123.461 348.271 123.285 348.448C123.108 348.624 122.869 348.723 122.62 348.723Z" fill="#44BDE2"/>
<path d="M122.62 446.503C122.371 446.503 122.132 446.404 121.955 446.228C121.779 446.051 121.68 445.812 121.68 445.563V392.383C121.68 392.134 121.779 391.894 121.955 391.718C122.132 391.542 122.371 391.443 122.62 391.443C122.869 391.443 123.108 391.542 123.285 391.718C123.461 391.894 123.56 392.134 123.56 392.383V445.563C123.56 445.812 123.461 446.051 123.285 446.228C123.108 446.404 122.869 446.503 122.62 446.503Z" fill="#44BDE2"/>
<path d="M113.66 324.003C113.411 324.003 113.172 323.904 112.995 323.728C112.819 323.551 112.72 323.312 112.72 323.063V306.873C112.72 306.624 112.819 306.385 112.995 306.208C113.172 306.032 113.411 305.933 113.66 305.933C113.909 305.933 114.148 306.032 114.325 306.208C114.501 306.385 114.6 306.624 114.6 306.873V323.103C114.59 323.345 114.486 323.574 114.311 323.742C114.136 323.91 113.903 324.003 113.66 324.003Z" fill="#44BDE2"/>
<path d="M113.66 416.523C113.411 416.523 113.172 416.424 112.995 416.248C112.819 416.071 112.72 415.832 112.72 415.583V399.353C112.72 399.104 112.819 398.865 112.995 398.688C113.172 398.512 113.411 398.413 113.66 398.413C113.909 398.413 114.148 398.512 114.325 398.688C114.501 398.865 114.6 399.104 114.6 399.353V415.583C114.6 415.832 114.501 416.071 114.325 416.248C114.148 416.424 113.909 416.523 113.66 416.523Z" fill="#44BDE2"/>
<path d="M404.05 420.273L401.28 502.803H436.01L433.24 409.143L404.05 420.273Z" fill="#2D2D84"/>
<path d="M433.24 390.763V311.533H404.05V409.143L433.24 390.763Z" fill="#2D2D84"/>
<path d="M409.49 430.793H428.7V379.963H409.49V430.793Z" fill="#2D2D84"/>
<path d="M406.88 437.503C406.631 437.503 406.392 437.602 406.215 437.778C406.039 437.955 405.94 438.194 405.94 438.443V491.623C405.94 491.872 406.039 492.111 406.215 492.288C406.392 492.464 406.631 492.563 406.88 492.563C407.129 492.563 407.368 492.464 407.545 492.288C407.721 492.111 407.82 491.872 407.82 491.623V438.443C407.82 438.194 407.721 437.955 407.545 437.778C407.368 437.602 407.129 437.503 406.88 437.503Z" fill="#44BDE2"/>
<path d="M423.2 422.243C422.951 422.243 422.712 422.342 422.535 422.518C422.359 422.695 422.26 422.934 422.26 423.183V476.363C422.26 476.612 422.359 476.851 422.535 477.028C422.712 477.204 422.951 477.303 423.2 477.303C423.449 477.303 423.688 477.204 423.865 477.028C424.041 476.851 424.14 476.612 424.14 476.363V423.183C424.14 422.934 424.041 422.695 423.865 422.518C423.688 422.342 423.449 422.243 423.2 422.243Z" fill="#44BDE2"/>
<path d="M423.2 324.463C422.951 324.463 422.712 324.562 422.535 324.738C422.359 324.915 422.26 325.154 422.26 325.403V378.583C422.26 378.832 422.359 379.071 422.535 379.248C422.712 379.424 422.951 379.523 423.2 379.523C423.449 379.523 423.688 379.424 423.865 379.248C424.041 379.071 424.14 378.832 424.14 378.583V325.403C424.14 325.154 424.041 324.915 423.865 324.738C423.688 324.562 423.449 324.463 423.2 324.463Z" fill="#44BDE2"/>
<path d="M414.24 446.913C413.991 446.913 413.752 447.012 413.575 447.188C413.399 447.365 413.3 447.604 413.3 447.853V464.093C413.3 464.342 413.399 464.581 413.575 464.758C413.752 464.934 413.991 465.033 414.24 465.033C414.485 465.019 414.716 464.915 414.889 464.742C415.062 464.568 415.166 464.338 415.18 464.093V447.853C415.166 447.608 415.062 447.377 414.889 447.204C414.716 447.031 414.485 446.927 414.24 446.913Z" fill="#44BDE2"/>
<path d="M414.24 354.433C413.991 354.433 413.752 354.532 413.575 354.708C413.399 354.884 413.3 355.124 413.3 355.373V371.613C413.3 371.862 413.399 372.101 413.575 372.278C413.752 372.454 413.991 372.553 414.24 372.553C414.485 372.539 414.716 372.435 414.889 372.262C415.062 372.088 415.166 371.857 415.18 371.613V355.373C415.166 355.128 415.062 354.897 414.889 354.724C414.716 354.551 414.485 354.447 414.24 354.433Z" fill="#44BDE2"/>
<path d="M234.71 378.223H238.82C238.82 424.443 247.24 459.713 247.24 459.713H226.24C226.24 459.713 234.71 424.443 234.71 378.223Z" fill="#2D2D84"/>
<path d="M236.76 390.993C247.844 390.993 256.83 386.377 256.83 380.683C256.83 374.989 247.844 370.373 236.76 370.373C225.676 370.373 216.69 374.989 216.69 380.683C216.69 386.377 225.676 390.993 236.76 390.993Z" fill="#2D2D84"/>
<path d="M245.83 380.263C245.827 380.42 245.763 380.57 245.651 380.681C245.539 380.791 245.387 380.853 245.23 380.853H223.23C223.073 380.853 222.922 380.791 222.809 380.681C222.697 380.57 222.633 380.42 222.63 380.263C222.63 380.104 222.693 379.951 222.806 379.839C222.918 379.726 223.071 379.663 223.23 379.663H245.23C245.389 379.663 245.542 379.726 245.654 379.839C245.767 379.951 245.83 380.104 245.83 380.263Z" fill="#D063E0"/>
<path d="M276.17 321.663H283C283 398.663 297 457.463 297 457.463H262.1C262.1 457.463 276.17 398.683 276.17 321.663Z" fill="#2D2D84"/>
<path d="M279.59 342.933C298.058 342.933 313.03 335.241 313.03 325.753C313.03 316.265 298.058 308.573 279.59 308.573C261.122 308.573 246.15 316.265 246.15 325.753C246.15 335.241 261.122 342.933 279.59 342.933Z" fill="#2D2D84"/>
<path d="M291.2 325.753C291.2 325.831 291.184 325.909 291.154 325.981C291.124 326.053 291.08 326.119 291.024 326.174C290.968 326.229 290.902 326.272 290.829 326.301C290.756 326.33 290.678 326.344 290.6 326.343H268.6C268.522 326.344 268.444 326.33 268.371 326.301C268.298 326.272 268.232 326.229 268.176 326.174C268.121 326.119 268.076 326.053 268.046 325.981C268.016 325.909 268 325.831 268 325.753C268 325.594 268.063 325.441 268.176 325.329C268.288 325.216 268.441 325.153 268.6 325.153H290.6C290.759 325.153 290.912 325.216 291.024 325.329C291.137 325.441 291.2 325.594 291.2 325.753Z" fill="#D063E0"/>
<path d="M386.75 395.603H389.91C389.855 416.666 392.028 437.676 396.39 458.283H380.28C384.636 437.675 386.805 416.666 386.75 395.603Z" fill="#2D2D84"/>
<path d="M388.33 405.423C396.852 405.423 403.76 401.873 403.76 397.493C403.76 393.113 396.852 389.563 388.33 389.563C379.808 389.563 372.9 393.113 372.9 397.493C372.9 401.873 379.808 405.423 388.33 405.423Z" fill="#2D2D84"/>
<path d="M399.93 397.493C399.927 397.65 399.863 397.8 399.751 397.911C399.639 398.021 399.487 398.083 399.33 398.083H377.33C377.174 398.083 377.023 398.021 376.913 397.91C376.802 397.799 376.74 397.649 376.74 397.493C376.739 397.415 376.753 397.337 376.782 397.264C376.811 397.191 376.854 397.125 376.909 397.069C376.964 397.013 377.03 396.969 377.102 396.939C377.174 396.909 377.252 396.893 377.33 396.893H399.33C399.489 396.893 399.642 396.956 399.754 397.069C399.867 397.181 399.93 397.334 399.93 397.493Z" fill="#D063E0"/>
<path d="M486.33 438.663C486.33 425.313 476.6 414.503 464.6 414.503C452.6 414.503 442.87 425.313 442.87 438.663C442.872 439.955 442.965 441.245 443.15 442.523H434.39C434.47 441.263 434.52 439.973 434.52 438.663C434.52 425.313 430.06 414.503 424.52 414.503C418.98 414.503 414.52 425.313 414.52 438.663C414.52 439.973 414.52 441.263 414.65 442.523H388.65C388.65 428.732 394.129 415.505 403.88 405.753C413.632 396.002 426.859 390.523 440.65 390.523C454.441 390.523 467.668 396.002 477.42 405.753C487.171 415.505 492.65 428.732 492.65 442.523H485.95C486.168 441.247 486.295 439.957 486.33 438.663Z" fill="#2D2D84"/>
<path d="M438.1 406.003C438.1 406.16 438.038 406.311 437.928 406.424C437.817 406.536 437.667 406.6 437.51 406.603H415.51C415.432 406.603 415.354 406.587 415.282 406.557C415.21 406.527 415.144 406.482 415.089 406.427C415.034 406.371 414.991 406.305 414.962 406.232C414.933 406.159 414.919 406.081 414.92 406.003C414.92 405.846 414.982 405.696 415.093 405.586C415.203 405.475 415.354 405.413 415.51 405.413H437.51C437.666 405.416 437.814 405.479 437.924 405.589C438.034 405.699 438.097 405.847 438.1 406.003Z" fill="#D063E0"/>
<path d="M457 398.413C457 398.569 456.938 398.72 456.827 398.83C456.717 398.941 456.567 399.003 456.41 399.003H449.29C449.133 399.003 448.982 398.941 448.869 398.831C448.757 398.72 448.693 398.57 448.69 398.413C448.69 398.334 448.706 398.256 448.736 398.183C448.766 398.111 448.81 398.044 448.866 397.989C448.921 397.933 448.988 397.889 449.06 397.859C449.133 397.829 449.211 397.813 449.29 397.813H456.41C456.488 397.813 456.566 397.829 456.638 397.859C456.71 397.889 456.776 397.933 456.831 397.989C456.886 398.045 456.929 398.111 456.958 398.184C456.987 398.257 457.001 398.335 457 398.413Z" fill="#D063E0"/>
<path d="M447.29 398.413C447.29 398.569 447.228 398.72 447.117 398.83C447.007 398.941 446.856 399.003 446.7 399.003H444.25C444.093 399.003 443.941 398.941 443.829 398.831C443.717 398.72 443.653 398.57 443.65 398.413C443.65 398.334 443.666 398.256 443.696 398.183C443.726 398.111 443.77 398.044 443.826 397.989C443.881 397.933 443.948 397.889 444.02 397.859C444.093 397.829 444.171 397.813 444.25 397.813H446.7C446.778 397.813 446.856 397.829 446.928 397.859C447 397.889 447.066 397.933 447.121 397.989C447.176 398.045 447.219 398.111 447.248 398.184C447.277 398.257 447.291 398.335 447.29 398.413Z" fill="#D063E0"/>
<path d="M316.12 266.183H322.76L331.37 300.353L339.61 304.473L352.29 351.633L343.39 348.103L345.56 356.743L355.76 362.423L378.48 457.463H326.04L319.7 342.333L327.46 346.653L316.12 266.183Z" fill="#2D2D84"/>
<path d="M340.36 376.213C340.436 376.197 340.515 376.196 340.591 376.21C340.668 376.225 340.741 376.254 340.806 376.297C340.871 376.34 340.927 376.395 340.97 376.46C341.014 376.524 341.045 376.597 341.06 376.673L345.39 398.243C345.407 398.32 345.409 398.4 345.394 398.477C345.38 398.555 345.35 398.629 345.306 398.694C345.262 398.76 345.205 398.816 345.139 398.858C345.072 398.901 344.998 398.93 344.92 398.943C344.844 398.959 344.765 398.96 344.689 398.945C344.612 398.931 344.539 398.901 344.474 398.859C344.409 398.816 344.353 398.761 344.31 398.696C344.266 398.632 344.236 398.559 344.22 398.483L339.89 376.913C339.861 376.758 339.893 376.597 339.981 376.466C340.069 376.335 340.205 376.244 340.36 376.213Z" fill="#44BDE2"/>
<path d="M345.5 401.793C345.655 401.766 345.814 401.8 345.944 401.887C346.075 401.975 346.166 402.11 346.2 402.263L346.91 405.803C346.937 405.958 346.903 406.117 346.815 406.247C346.728 406.378 346.593 406.469 346.44 406.503C346.285 406.53 346.126 406.496 345.996 406.408C345.865 406.321 345.774 406.186 345.74 406.033L345.03 402.493C345.001 402.338 345.033 402.177 345.121 402.046C345.209 401.915 345.345 401.824 345.5 401.793Z" fill="#44BDE2"/>
<path d="M328.13 308.573C328.286 308.553 328.444 308.595 328.569 308.691C328.695 308.786 328.778 308.927 328.8 309.083L332 330.853C332.011 330.93 332.007 331.008 331.988 331.083C331.969 331.159 331.936 331.23 331.889 331.292C331.843 331.354 331.784 331.406 331.718 331.446C331.651 331.486 331.577 331.512 331.5 331.523C331.344 331.546 331.185 331.506 331.057 331.413C330.93 331.319 330.845 331.179 330.82 331.023L327.63 309.253C327.61 309.097 327.65 308.939 327.743 308.813C327.837 308.686 327.975 308.6 328.13 308.573Z" fill="#44BDE2"/>
<path d="M331.91 334.403C331.988 334.39 332.067 334.393 332.143 334.411C332.22 334.43 332.292 334.463 332.355 334.51C332.419 334.556 332.472 334.615 332.512 334.683C332.553 334.75 332.579 334.825 332.59 334.903L333.11 338.473C333.121 338.55 333.117 338.628 333.098 338.703C333.079 338.779 333.046 338.85 332.999 338.912C332.953 338.974 332.894 339.027 332.828 339.066C332.761 339.106 332.687 339.132 332.61 339.143C332.532 339.156 332.453 339.153 332.377 339.134C332.3 339.116 332.228 339.083 332.165 339.036C332.101 338.99 332.048 338.931 332.008 338.863C331.967 338.796 331.941 338.721 331.93 338.643L331.41 335.073C331.399 334.996 331.403 334.918 331.422 334.843C331.441 334.767 331.474 334.696 331.521 334.634C331.567 334.572 331.626 334.519 331.692 334.48C331.759 334.44 331.833 334.414 331.91 334.403Z" fill="#44BDE2"/>
<path d="M356 385.153C356.077 385.137 356.156 385.137 356.233 385.152C356.31 385.167 356.384 385.197 356.449 385.241C356.514 385.285 356.57 385.341 356.613 385.407C356.656 385.472 356.686 385.546 356.7 385.623L365.7 430.273C365.727 430.428 365.693 430.587 365.605 430.717C365.518 430.848 365.383 430.939 365.23 430.973C365.075 431 364.916 430.966 364.786 430.878C364.655 430.791 364.564 430.656 364.53 430.503L355.53 385.853C355.514 385.776 355.514 385.697 355.529 385.62C355.544 385.543 355.574 385.469 355.618 385.404C355.662 385.339 355.718 385.283 355.784 385.24C355.849 385.197 355.923 385.167 356 385.153Z" fill="#44BDE2"/>
<path d="M178.64 331.333L168.7 349.653L220.22 459.433H155.82V301.933L178.64 331.333Z" fill="#2D2D84"/>
<path d="M163.6 391.003C163.351 391.003 163.112 390.904 162.935 390.728C162.759 390.551 162.66 390.312 162.66 390.063V373.813C162.66 373.564 162.759 373.325 162.935 373.148C163.112 372.972 163.351 372.873 163.6 372.873C163.845 372.887 164.076 372.991 164.249 373.164C164.422 373.337 164.526 373.568 164.54 373.813V390.053C164.528 390.299 164.426 390.533 164.252 390.708C164.078 390.883 163.846 390.988 163.6 391.003Z" fill="#D063E0"/>
<path d="M178.68 421.413C178.431 421.413 178.192 421.314 178.015 421.138C177.839 420.961 177.74 420.722 177.74 420.473V404.233C177.74 403.984 177.839 403.745 178.015 403.568C178.192 403.392 178.431 403.293 178.68 403.293C178.929 403.293 179.168 403.392 179.345 403.568C179.521 403.745 179.62 403.984 179.62 404.233V420.473C179.62 420.722 179.521 420.961 179.345 421.138C179.168 421.314 178.929 421.413 178.68 421.413Z" fill="#D063E0"/>
<path d="M173.3 437.813C173.051 437.813 172.812 437.714 172.635 437.538C172.459 437.361 172.36 437.122 172.36 436.873V387.873C172.36 387.624 172.459 387.384 172.635 387.208C172.812 387.032 173.051 386.933 173.3 386.933C173.549 386.933 173.788 387.032 173.965 387.208C174.141 387.384 174.24 387.624 174.24 387.873V436.873C174.24 437.122 174.141 437.361 173.965 437.538C173.788 437.714 173.549 437.813 173.3 437.813Z" fill="#D063E0"/>
<path d="M332.26 395.603V457.463H319.53C319.66 454.253 319.73 450.873 319.73 447.383C319.73 426.523 317.28 409.613 314.26 409.613C311.24 409.613 308.79 426.523 308.79 447.383C308.79 450.873 308.86 454.253 308.99 457.463H305.24C305.36 454.253 305.44 450.873 305.44 447.383C305.44 426.523 302.99 409.613 299.96 409.613C296.93 409.613 294.49 426.523 294.49 447.383C294.49 450.873 294.56 454.253 294.69 457.463H285.31V395.603H332.26Z" fill="#2D2D84"/>
</g>
<g opacity="0.4">
<path d="M527.53 353.573L525.27 286.343H553.57L551.31 362.643L527.53 353.573Z" fill="#2D2D84"/>
<path d="M551.31 377.613V442.153H527.53V362.643L551.31 377.613Z" fill="#2D2D84"/>
<path d="M531.97 386.403H547.62V345.003H531.97V386.403Z" fill="#2D2D84"/>
<path d="M529.83 339.543C529.627 339.54 529.434 339.458 529.292 339.314C529.15 339.17 529.07 338.975 529.07 338.773V295.453C529.07 295.25 529.15 295.056 529.292 294.912C529.434 294.768 529.627 294.685 529.83 294.683C530.034 294.683 530.23 294.764 530.374 294.908C530.519 295.053 530.6 295.249 530.6 295.453V338.773C530.6 338.874 530.58 338.974 530.541 339.068C530.503 339.161 530.446 339.246 530.374 339.317C530.303 339.389 530.218 339.446 530.125 339.484C530.031 339.523 529.931 339.543 529.83 339.543Z" fill="#44BDE2"/>
<path d="M543.13 352.003C542.927 352 542.732 351.918 542.588 351.775C542.445 351.631 542.363 351.436 542.36 351.233V307.883C542.363 307.68 542.445 307.487 542.589 307.345C542.733 307.203 542.928 307.123 543.13 307.123C543.332 307.123 543.525 307.203 543.667 307.346C543.81 307.488 543.89 307.681 543.89 307.883V351.203C543.894 351.306 543.877 351.408 543.841 351.504C543.805 351.601 543.75 351.689 543.679 351.763C543.608 351.838 543.523 351.898 543.429 351.939C543.334 351.98 543.233 352.002 543.13 352.003Z" fill="#44BDE2"/>
<path d="M543.13 431.623C542.927 431.62 542.732 431.538 542.588 431.395C542.445 431.251 542.363 431.056 542.36 430.853V387.533C542.363 387.33 542.445 387.137 542.589 386.995C542.733 386.853 542.928 386.773 543.13 386.773C543.332 386.773 543.525 386.853 543.667 386.996C543.81 387.138 543.89 387.331 543.89 387.533V430.853C543.89 431.055 543.81 431.25 543.668 431.394C543.526 431.538 543.332 431.62 543.13 431.623Z" fill="#44BDE2"/>
<path d="M535.83 331.873C535.626 331.873 535.43 331.792 535.286 331.647C535.141 331.503 535.06 331.307 535.06 331.103V317.883C535.059 317.781 535.078 317.681 535.116 317.587C535.154 317.493 535.211 317.407 535.283 317.335C535.354 317.264 535.44 317.207 535.534 317.169C535.628 317.131 535.729 317.112 535.83 317.113C535.931 317.113 536.03 317.133 536.123 317.172C536.216 317.21 536.3 317.267 536.371 317.339C536.442 317.411 536.497 317.496 536.535 317.589C536.573 317.682 536.591 317.782 536.59 317.883V331.103C536.59 331.305 536.51 331.5 536.368 331.644C536.226 331.788 536.033 331.87 535.83 331.873Z" fill="#44BDE2"/>
<path d="M535.83 407.203C535.729 407.204 535.628 407.185 535.534 407.147C535.44 407.109 535.354 407.052 535.283 406.98C535.211 406.909 535.154 406.823 535.116 406.729C535.078 406.635 535.059 406.534 535.06 406.433V393.213C535.06 393.009 535.141 392.813 535.286 392.668C535.43 392.524 535.626 392.443 535.83 392.443C536.033 392.446 536.226 392.528 536.368 392.672C536.51 392.816 536.59 393.01 536.59 393.213V406.433C536.591 406.534 536.573 406.633 536.535 406.727C536.497 406.82 536.442 406.905 536.371 406.977C536.3 407.048 536.216 407.105 536.123 407.144C536.03 407.183 535.931 407.203 535.83 407.203Z" fill="#44BDE2"/>
</g>
<g opacity="0.4">
<path d="M587.88 397.783L589.98 460.463H563.6L565.71 389.323L587.88 397.783Z" fill="#2D2D84"/>
<path d="M565.71 375.363V315.183H587.88V389.323L565.71 375.363Z" fill="#2D2D84"/>
<path d="M583.74 367.163H569.15V405.763H583.74V367.163Z" fill="#2D2D84"/>
<path d="M585.74 410.863C585.834 410.863 585.927 410.882 586.014 410.918C586.101 410.954 586.18 411.007 586.246 411.074C586.312 411.141 586.364 411.221 586.399 411.308C586.434 411.395 586.451 411.489 586.45 411.583V452.003C586.45 452.096 586.432 452.189 586.396 452.275C586.36 452.361 586.308 452.439 586.242 452.505C586.176 452.571 586.098 452.623 586.012 452.659C585.926 452.695 585.833 452.713 585.74 452.713C585.644 452.717 585.549 452.702 585.459 452.668C585.369 452.634 585.288 452.582 585.218 452.516C585.149 452.45 585.094 452.37 585.057 452.282C585.019 452.194 585 452.099 585 452.003V411.583C584.999 411.486 585.017 411.39 585.054 411.301C585.091 411.212 585.145 411.131 585.215 411.063C585.284 410.996 585.366 410.943 585.457 410.909C585.547 410.875 585.643 410.859 585.74 410.863Z" fill="#44BDE2"/>
<path d="M573.34 399.273C573.434 399.272 573.527 399.289 573.615 399.324C573.702 399.359 573.781 399.411 573.848 399.477C573.915 399.543 573.969 399.622 574.005 399.709C574.041 399.796 574.06 399.889 574.06 399.983V440.383C574.06 440.477 574.041 440.57 574.005 440.657C573.969 440.744 573.915 440.822 573.848 440.889C573.781 440.955 573.702 441.007 573.615 441.042C573.527 441.077 573.434 441.094 573.34 441.093C573.152 441.093 572.971 441.018 572.838 440.885C572.705 440.752 572.63 440.571 572.63 440.383V400.003C572.627 399.908 572.644 399.814 572.678 399.725C572.713 399.637 572.764 399.556 572.831 399.488C572.897 399.42 572.976 399.366 573.064 399.329C573.151 399.292 573.245 399.273 573.34 399.273Z" fill="#44BDE2"/>
<path d="M573.34 325.003C573.435 325.003 573.528 325.022 573.615 325.058C573.703 325.094 573.782 325.147 573.849 325.214C573.916 325.281 573.969 325.36 574.005 325.447C574.041 325.535 574.06 325.628 574.06 325.723V366.113C574.06 366.207 574.041 366.3 574.005 366.387C573.969 366.474 573.915 366.552 573.848 366.619C573.781 366.685 573.702 366.737 573.615 366.772C573.527 366.807 573.434 366.824 573.34 366.823C573.152 366.823 572.971 366.748 572.838 366.615C572.705 366.482 572.63 366.301 572.63 366.113V325.723C572.629 325.629 572.646 325.535 572.681 325.448C572.716 325.361 572.768 325.281 572.834 325.214C572.9 325.147 572.979 325.094 573.066 325.058C573.153 325.022 573.246 325.003 573.34 325.003Z" fill="#44BDE2"/>
<path d="M580.15 418.003C580.245 418.003 580.338 418.022 580.426 418.058C580.513 418.094 580.592 418.147 580.659 418.214C580.726 418.281 580.779 418.36 580.815 418.447C580.851 418.535 580.87 418.628 580.87 418.723V431.053C580.87 431.147 580.851 431.24 580.815 431.327C580.779 431.414 580.725 431.492 580.658 431.559C580.591 431.625 580.512 431.677 580.425 431.712C580.337 431.747 580.244 431.764 580.15 431.763C579.962 431.763 579.781 431.688 579.648 431.555C579.515 431.422 579.44 431.241 579.44 431.053V418.733C579.437 418.638 579.454 418.544 579.488 418.455C579.523 418.367 579.575 418.286 579.641 418.218C579.707 418.15 579.786 418.096 579.874 418.059C579.961 418.022 580.055 418.003 580.15 418.003Z" fill="#44BDE2"/>
<path d="M580.15 347.773C580.245 347.773 580.338 347.792 580.426 347.828C580.513 347.864 580.592 347.917 580.659 347.984C580.726 348.051 580.779 348.13 580.815 348.217C580.851 348.305 580.87 348.398 580.87 348.493V360.823C580.87 360.917 580.851 361.01 580.815 361.097C580.779 361.184 580.726 361.263 580.659 361.329C580.592 361.395 580.512 361.447 580.425 361.482C580.338 361.517 580.244 361.534 580.15 361.533C579.962 361.533 579.781 361.458 579.648 361.325C579.515 361.192 579.44 361.011 579.44 360.823V348.493C579.439 348.399 579.456 348.305 579.491 348.218C579.526 348.131 579.578 348.051 579.644 347.984C579.71 347.917 579.789 347.864 579.876 347.828C579.963 347.792 580.056 347.773 580.15 347.773Z" fill="#44BDE2"/>
</g>
<g opacity="0.4">
<path d="M388.17 350.113H393C393 404.223 402.85 445.513 402.85 445.513H378.32C378.32 445.513 388.17 404.223 388.17 350.113Z" fill="#2D2D84"/>
<path d="M390.58 365.053C403.553 365.053 414.07 359.649 414.07 352.983C414.07 346.317 403.553 340.913 390.58 340.913C377.607 340.913 367.09 346.317 367.09 352.983C367.09 359.649 377.607 365.053 390.58 365.053Z" fill="#2D2D84"/>
<path d="M401.19 352.493C401.19 352.584 401.172 352.675 401.137 352.759C401.101 352.844 401.05 352.92 400.984 352.984C400.919 353.049 400.842 353.099 400.757 353.133C400.672 353.167 400.581 353.184 400.49 353.183H374.73C374.546 353.183 374.37 353.111 374.239 352.981C374.108 352.852 374.033 352.677 374.03 352.493C374.03 352.307 374.104 352.129 374.235 351.998C374.366 351.867 374.544 351.793 374.73 351.793H400.49C400.676 351.793 400.854 351.867 400.985 351.998C401.116 352.129 401.19 352.307 401.19 352.493Z" fill="#D063E0"/>
</g>
<path d="M613.91 416.843C613.91 416.843 449.91 391.253 393.54 358.033C337.17 324.813 421.3 310.033 421.3 310.033L424.6 294.663C424.6 294.663 308.82 300.143 342.33 350.003C375.84 399.863 613.91 422.403 613.91 422.403V416.843Z" fill="#2D2D84"/>
<path d="M421.29 314.833L418.05 218.213H458.71L455.47 327.873L421.29 314.833Z" fill="#2D2D84"/>
<path d="M455.47 349.393V442.153H421.29V327.873L455.47 349.393Z" fill="#2D2D84"/>
<path d="M427.66 362.023H450.15V302.523H427.66V362.023Z" fill="#2D2D84"/>
<path d="M424.6 294.673C424.308 294.673 424.028 294.557 423.822 294.351C423.616 294.144 423.5 293.865 423.5 293.573V231.313C423.5 231.021 423.616 230.741 423.822 230.535C424.028 230.329 424.308 230.213 424.6 230.213C424.892 230.213 425.172 230.329 425.378 230.535C425.584 230.741 425.7 231.021 425.7 231.313V293.573C425.7 293.865 425.584 294.144 425.378 294.351C425.172 294.557 424.892 294.673 424.6 294.673Z" fill="#44BDE2"/>
<path d="M443.71 312.533C443.418 312.533 443.139 312.417 442.932 312.211C442.726 312.004 442.61 311.725 442.61 311.433V249.173C442.61 248.881 442.726 248.601 442.932 248.395C443.139 248.189 443.418 248.073 443.71 248.073C443.854 248.073 443.998 248.101 444.131 248.157C444.264 248.212 444.386 248.293 444.488 248.395C444.59 248.497 444.671 248.619 444.726 248.752C444.782 248.885 444.81 249.028 444.81 249.173V311.433C444.81 311.577 444.782 311.72 444.726 311.854C444.671 311.987 444.59 312.109 444.488 312.211C444.386 312.313 444.264 312.394 444.131 312.449C443.998 312.504 443.854 312.533 443.71 312.533Z" fill="#44BDE2"/>
<path d="M443.71 427.003C443.418 427.003 443.139 426.887 442.932 426.681C442.726 426.475 442.61 426.195 442.61 425.903V363.653C442.61 363.361 442.726 363.081 442.932 362.875C443.139 362.669 443.418 362.553 443.71 362.553C443.854 362.553 443.998 362.581 444.131 362.637C444.264 362.692 444.386 362.773 444.488 362.875C444.59 362.977 444.671 363.099 444.726 363.232C444.782 363.365 444.81 363.509 444.81 363.653V425.913C444.807 426.203 444.69 426.48 444.484 426.684C444.278 426.888 444 427.003 443.71 427.003Z" fill="#44BDE2"/>
<path d="M433.21 283.653C432.919 283.65 432.641 283.534 432.435 283.328C432.229 283.122 432.113 282.844 432.11 282.553V263.553C432.11 263.408 432.138 263.265 432.194 263.132C432.249 262.999 432.33 262.877 432.432 262.775C432.534 262.673 432.656 262.592 432.789 262.537C432.923 262.481 433.066 262.453 433.21 262.453C433.354 262.453 433.498 262.481 433.631 262.537C433.764 262.592 433.886 262.673 433.988 262.775C434.09 262.877 434.171 262.999 434.226 263.132C434.282 263.265 434.31 263.408 434.31 263.553V282.553C434.31 282.845 434.194 283.124 433.988 283.331C433.782 283.537 433.502 283.653 433.21 283.653Z" fill="#44BDE2"/>
<path d="M433.21 391.923C433.066 391.923 432.923 391.894 432.789 391.839C432.656 391.784 432.534 391.703 432.432 391.601C432.33 391.499 432.249 391.377 432.194 391.244C432.138 391.11 432.11 390.967 432.11 390.823V371.823C432.11 371.678 432.138 371.535 432.194 371.402C432.249 371.268 432.33 371.147 432.432 371.045C432.534 370.943 432.656 370.862 432.789 370.807C432.923 370.751 433.066 370.723 433.21 370.723C433.502 370.723 433.782 370.839 433.988 371.045C434.194 371.251 434.31 371.531 434.31 371.823V390.823C434.31 391.115 434.194 391.394 433.988 391.601C433.782 391.807 433.502 391.923 433.21 391.923Z" fill="#44BDE2"/>
<path d="M410 449.153C410 433.533 398.61 420.873 384.56 420.873C370.51 420.873 359.12 433.533 359.12 449.153C359.118 450.666 359.228 452.177 359.45 453.673H349.14C349.24 452.203 349.29 450.673 349.29 449.153C349.29 433.533 344.07 420.873 337.63 420.873C331.19 420.873 326 433.533 326 449.153C326 450.693 326.06 452.203 326.15 453.673H295.74C295.945 437.666 302.448 422.384 313.84 411.137C325.232 399.89 340.596 393.583 356.605 393.583C372.614 393.583 387.978 399.89 399.37 411.137C410.762 422.384 417.265 437.666 417.47 453.673H409.62C409.853 452.177 409.98 450.667 410 449.153Z" fill="#2D2D84"/>
<path d="M353.49 410.873C353.49 410.964 353.472 411.055 353.437 411.139C353.401 411.224 353.35 411.3 353.284 411.364C353.219 411.429 353.142 411.479 353.057 411.513C352.972 411.547 352.882 411.564 352.79 411.563H327C326.817 411.563 326.642 411.49 326.512 411.361C326.383 411.232 326.31 411.056 326.31 410.873C326.309 410.782 326.326 410.691 326.36 410.606C326.394 410.521 326.444 410.444 326.509 410.379C326.573 410.313 326.649 410.262 326.734 410.226C326.818 410.191 326.909 410.173 327 410.173H352.76C352.854 410.169 352.949 410.184 353.037 410.217C353.126 410.251 353.206 410.302 353.275 410.367C353.343 410.433 353.397 410.511 353.434 410.598C353.471 410.685 353.49 410.778 353.49 410.873Z" fill="#D063E0"/>
<path d="M375.58 402.003C375.58 402.187 375.508 402.363 375.379 402.494C375.249 402.625 375.074 402.7 374.89 402.703H366.55C366.365 402.7 366.189 402.626 366.058 402.495C365.927 402.364 365.853 402.188 365.85 402.003C365.85 401.817 365.924 401.639 366.055 401.508C366.186 401.377 366.364 401.303 366.55 401.303H374.89C374.981 401.303 375.072 401.321 375.156 401.356C375.241 401.392 375.317 401.443 375.381 401.509C375.446 401.574 375.496 401.651 375.53 401.736C375.564 401.821 375.581 401.912 375.58 402.003Z" fill="#D063E0"/>
<path d="M364.25 402.003C364.25 402.189 364.176 402.367 364.045 402.498C363.914 402.629 363.736 402.703 363.55 402.703H360.69C360.504 402.703 360.326 402.629 360.195 402.498C360.064 402.367 359.99 402.189 359.99 402.003C359.99 401.817 360.064 401.639 360.195 401.508C360.326 401.377 360.504 401.303 360.69 401.303H363.55C363.736 401.303 363.914 401.377 364.045 401.508C364.176 401.639 364.25 401.817 364.25 402.003Z" fill="#D063E0"/>
<path d="M501.79 292.173L490.15 313.633L550.48 442.153H475.07V257.763L501.79 292.173Z" fill="#2D2D84"/>
<path d="M484.18 362.003C483.888 362.003 483.608 361.887 483.402 361.681C483.196 361.475 483.08 361.195 483.08 360.903V341.903C483.08 341.759 483.108 341.615 483.164 341.482C483.219 341.349 483.3 341.227 483.402 341.125C483.504 341.023 483.626 340.942 483.759 340.887C483.892 340.831 484.036 340.803 484.18 340.803C484.324 340.803 484.467 340.831 484.601 340.887C484.734 340.942 484.856 341.023 484.958 341.125C485.06 341.227 485.141 341.349 485.196 341.482C485.252 341.615 485.28 341.759 485.28 341.903V360.903C485.28 361.195 485.164 361.475 484.958 361.681C484.752 361.887 484.472 362.003 484.18 362.003Z" fill="#D063E0"/>
<path d="M501.84 397.633C501.696 397.633 501.553 397.605 501.419 397.549C501.286 397.494 501.164 397.413 501.062 397.311C500.96 397.209 500.879 397.087 500.824 396.954C500.768 396.82 500.74 396.677 500.74 396.533V377.533C500.74 377.24 500.856 376.959 501.062 376.752C501.268 376.544 501.547 376.426 501.84 376.423C502.133 376.426 502.412 376.544 502.618 376.752C502.824 376.959 502.94 377.24 502.94 377.533V396.533C502.94 396.825 502.824 397.105 502.618 397.311C502.412 397.517 502.132 397.633 501.84 397.633Z" fill="#D063E0"/>
<path d="M495.54 416.843C495.248 416.843 494.968 416.727 494.762 416.521C494.556 416.314 494.44 416.035 494.44 415.743V358.323C494.44 358.031 494.556 357.751 494.762 357.545C494.968 357.339 495.248 357.223 495.54 357.223C495.832 357.223 496.112 357.339 496.318 357.545C496.524 357.751 496.64 358.031 496.64 358.323V415.743C496.64 416.035 496.524 416.314 496.318 416.521C496.112 416.727 495.832 416.843 495.54 416.843Z" fill="#D063E0"/>
<path d="M546 282.523H554C554 372.703 570.42 441.523 570.42 441.523H529.6C529.6 441.523 546 372.703 546 282.523Z" fill="#2D2D84"/>
<path d="M550.03 307.423C571.652 307.423 589.18 298.419 589.18 287.313C589.18 276.206 571.652 267.203 550.03 267.203C528.408 267.203 510.88 276.206 510.88 287.313C510.88 298.419 528.408 307.423 550.03 307.423Z" fill="#2D2D84"/>
<path d="M563.61 287.313C563.61 287.499 563.536 287.677 563.405 287.808C563.274 287.939 563.096 288.013 562.91 288.013H537.15C536.964 288.013 536.786 287.939 536.655 287.808C536.524 287.677 536.45 287.499 536.45 287.313C536.453 287.129 536.527 286.954 536.658 286.824C536.789 286.695 536.966 286.623 537.15 286.623H562.91C563.001 286.622 563.092 286.638 563.177 286.673C563.262 286.707 563.339 286.757 563.404 286.821C563.469 286.886 563.521 286.962 563.556 287.047C563.592 287.131 563.61 287.221 563.61 287.313Z" fill="#D063E0"/>
<path d="M592.79 217.573H600.57L610.64 257.583L620.29 262.403L635.14 317.613L624.71 313.483L627.26 323.593L639.19 330.253L665.8 441.513H604.4L596.99 306.723L606.07 311.783L592.79 217.573Z" fill="#2D2D84"/>
<path d="M621.17 346.393C621.259 346.374 621.351 346.373 621.441 346.39C621.531 346.407 621.616 346.441 621.693 346.492C621.769 346.542 621.835 346.607 621.886 346.683C621.937 346.758 621.972 346.843 621.99 346.933L627.06 372.193C627.093 372.374 627.053 372.561 626.951 372.714C626.848 372.867 626.69 372.974 626.51 373.013C626.329 373.046 626.142 373.006 625.989 372.904C625.836 372.801 625.729 372.643 625.69 372.463L620.62 347.213C620.585 347.031 620.623 346.843 620.726 346.689C620.829 346.536 620.988 346.429 621.17 346.393Z" fill="#44BDE2"/>
<path d="M627.18 376.343C627.362 376.308 627.55 376.346 627.703 376.449C627.857 376.552 627.964 376.712 628 376.893L628.83 381.033C628.849 381.122 628.85 381.214 628.833 381.304C628.816 381.394 628.781 381.479 628.731 381.556C628.681 381.632 628.616 381.698 628.54 381.749C628.465 381.8 628.379 381.835 628.29 381.853C628.201 381.872 628.108 381.873 628.019 381.856C627.929 381.839 627.843 381.804 627.767 381.754C627.691 381.704 627.625 381.639 627.574 381.563C627.523 381.488 627.488 381.403 627.47 381.313L626.64 377.163C626.621 377.074 626.62 376.981 626.637 376.892C626.654 376.802 626.688 376.716 626.739 376.64C626.789 376.564 626.854 376.498 626.929 376.447C627.005 376.396 627.09 376.361 627.18 376.343Z" fill="#44BDE2"/>
<path d="M606.84 267.213C606.93 267.199 607.022 267.202 607.11 267.224C607.199 267.246 607.282 267.284 607.356 267.338C607.429 267.392 607.491 267.46 607.538 267.538C607.585 267.616 607.617 267.703 607.63 267.793L611.37 293.283C611.384 293.374 611.38 293.466 611.358 293.555C611.336 293.645 611.296 293.728 611.241 293.802C611.186 293.875 611.117 293.937 611.038 293.984C610.959 294.03 610.871 294.061 610.78 294.073C610.597 294.099 610.411 294.051 610.263 293.941C610.115 293.83 610.017 293.666 609.99 293.483L606.26 268.003C606.244 267.913 606.247 267.82 606.268 267.731C606.289 267.642 606.328 267.558 606.382 267.484C606.436 267.411 606.505 267.349 606.583 267.302C606.662 267.255 606.749 267.225 606.84 267.213Z" fill="#44BDE2"/>
<path d="M611.28 297.443C611.463 297.417 611.649 297.465 611.796 297.575C611.944 297.686 612.043 297.85 612.07 298.033L612.68 302.213C612.703 302.395 612.655 302.58 612.544 302.727C612.434 302.874 612.272 302.973 612.09 303.003C611.908 303.026 611.723 302.977 611.576 302.867C611.428 302.757 611.33 302.594 611.3 302.413L610.69 298.233C610.676 298.142 610.68 298.05 610.702 297.96C610.724 297.871 610.764 297.788 610.819 297.714C610.874 297.64 610.943 297.578 611.022 297.532C611.101 297.485 611.189 297.455 611.28 297.443Z" fill="#44BDE2"/>
<path d="M639.47 356.863C639.559 356.843 639.652 356.84 639.742 356.857C639.833 356.873 639.919 356.908 639.995 356.958C640.072 357.008 640.137 357.074 640.188 357.15C640.239 357.227 640.273 357.313 640.29 357.403L650.79 409.683C650.823 409.864 650.783 410.051 650.681 410.204C650.578 410.357 650.42 410.464 650.24 410.503C650.058 410.538 649.87 410.5 649.716 410.397C649.563 410.294 649.456 410.134 649.42 409.953L638.93 357.683C638.911 357.594 638.91 357.501 638.927 357.412C638.944 357.322 638.978 357.236 639.029 357.16C639.079 357.084 639.144 357.018 639.22 356.967C639.295 356.916 639.38 356.881 639.47 356.863Z" fill="#44BDE2"/>
<path d="M611.68 369.093V441.513H596.78C596.93 437.753 597.01 433.803 597.01 429.713C597.01 405.293 594.14 385.503 590.61 385.503C587.08 385.503 584.2 405.293 584.2 429.713C584.2 433.803 584.29 437.713 584.44 441.513H580.05C580.2 437.753 580.28 433.803 580.28 429.713C580.28 405.293 577.41 385.503 573.87 385.503C570.33 385.503 567.47 405.293 567.47 429.713C567.47 433.803 567.55 437.713 567.7 441.513H556.7V369.093H611.68Z" fill="#2D2D84"/>
<path style="mix-blend-mode:screen" d="M682.9 368.143C450.11 400.613 221.9 403.973 0 368.143V517.933H682.9V368.143Z" fill="url(#paint0_linear_33_287)"/>
<path d="M682.9 415.523C450.11 462.003 222 465.643 0 415.523V601.523H682.9V415.523Z" fill="#25214C"/>
<mask id="mask0_33_287" style="mask-type:luminance" maskUnits="userSpaceOnUse" x="0" y="415" width="683" height="187">
<path d="M682.9 415.523C450.11 462.003 222 465.643 0 415.523V601.523H682.9V415.523Z" fill="white"/>
</mask>
<g mask="url(#mask0_33_287)">
<path d="M1126.68 601.553H1129.69L859.77 516.443L811.84 508.753L599.52 438.443H598.49L810.69 508.993L858.65 516.713L1126.68 601.553Z" fill="#3548A0"/>
<path d="M948.76 601.553H951.76L839.63 555.873L781.96 544.153L538.46 438.443H537.43L780.48 544.523L838.19 556.283L948.76 601.553Z" fill="#3548A0"/>
<path d="M783.39 600.903H786.39L587.24 489.863L597.36 484.433L507.77 438.363H506.74L595.44 484.263L585.25 489.673L783.39 600.903Z" fill="#3548A0"/>
<path d="M1019.31 601.553H1022.32L575.57 438.443H574.54L1019.31 601.553Z" fill="#3548A0"/>
<path d="M679.8 601.553H682.81L459.07 438.443H458.04L679.8 601.553Z" fill="#3548A0"/>
<path d="M575.05 601.553H578.05L497.21 516.443L466.36 508.753L410.22 438.443H409.19L464.67 508.993L495.49 516.713L575.05 601.553Z" fill="#3548A0"/>
<path d="M397.13 601.553H400.13L389.47 555.873L357.83 544.153L349.17 438.443H348.14L355.55 544.523L387.11 556.283L397.13 601.553Z" fill="#3548A0"/>
<path d="M233.21 600.903H236.21L283.72 489.863L305.9 484.433L318.64 438.363H317.61L304.37 484.263L282.15 489.673L233.21 600.903Z" fill="#3548A0"/>
<path d="M467.68 601.553H470.68L386.28 438.443H385.25L467.68 601.553Z" fill="#3548A0"/>
<path d="M128.17 601.553H131.18L269.77 438.443H268.74L128.17 601.553Z" fill="#3548A0"/>
<path d="M1126.68 601.553H1129.69L859.77 516.443L811.84 508.753L599.52 438.443H598.49L810.69 508.993L858.65 516.713L1126.68 601.553Z" fill="#3548A0"/>
<path d="M948.76 601.553H951.76L839.63 555.873L781.96 544.153L538.46 438.443H537.43L780.48 544.523L838.19 556.283L948.76 601.553Z" fill="#3548A0"/>
<path d="M783.39 600.903H786.39L587.24 489.863L597.36 484.433L507.77 438.363H506.74L595.44 484.263L585.25 489.673L783.39 600.903Z" fill="#3548A0"/>
<path d="M1019.31 601.553H1022.32L575.57 438.443H574.54L1019.31 601.553Z" fill="#3548A0"/>
<path d="M679.8 601.553H682.81L459.07 438.443H458.04L679.8 601.553Z" fill="#3548A0"/>
<path d="M575.05 601.553H578.05L497.21 516.443L466.36 508.753L410.22 438.443H409.19L464.67 508.993L495.49 516.713L575.05 601.553Z" fill="#3548A0"/>
<path d="M397.13 601.553H400.13L389.47 555.873L357.83 544.153L349.17 438.443H348.14L355.55 544.523L387.11 556.283L397.13 601.553Z" fill="#3548A0"/>
<path d="M233.21 600.903H236.21L283.72 489.863L305.9 484.433L318.64 438.363H317.61L304.37 484.263L282.15 489.673L233.21 600.903Z" fill="#3548A0"/>
<path d="M467.68 601.553H470.68L386.28 438.443H385.25L467.68 601.553Z" fill="#3548A0"/>
<path d="M128.17 601.553H131.18L269.77 438.443H268.74L128.17 601.553Z" fill="#3548A0"/>
<path d="M948.76 601.553H951.76L839.63 555.873L781.96 544.153L538.46 438.443H537.43L780.48 544.523L838.19 556.283L948.76 601.553Z" fill="#3548A0"/>
<path d="M783.39 600.903H786.39L587.24 489.863L597.36 484.433L507.77 438.363H506.74L595.44 484.263L585.25 489.673L783.39 600.903Z" fill="#3548A0"/>
<path d="M1019.31 601.553H1022.32L575.57 438.443H574.54L1019.31 601.553Z" fill="#3548A0"/>
<path d="M679.8 601.553H682.81L459.07 438.443H458.04L679.8 601.553Z" fill="#3548A0"/>
<path d="M575.05 601.553H578.05L497.21 516.443L466.36 508.753L410.22 438.443H409.19L464.67 508.993L495.49 516.713L575.05 601.553Z" fill="#3548A0"/>
<path d="M397.13 601.553H400.13L389.47 555.873L357.83 544.153L349.17 438.443H348.14L355.55 544.523L387.11 556.283L397.13 601.553Z" fill="#3548A0"/>
<path d="M233.21 600.903H236.21L283.72 489.863L305.9 484.433L318.64 438.363H317.61L304.37 484.263L282.15 489.673L233.21 600.903Z" fill="#3548A0"/>
<path d="M467.68 601.553H470.68L386.28 438.443H385.25L467.68 601.553Z" fill="#3548A0"/>
<path d="M128.17 601.553H131.18L269.77 438.443H268.74L128.17 601.553Z" fill="#3548A0"/>
<path d="M1170.7 595.493H1173.7L903.79 510.373L855.86 502.683L643.53 432.373H642.5L854.71 502.933L902.66 510.643L1170.7 595.493Z" fill="#3548A0"/>
<path d="M948.76 601.553H951.76L839.63 555.873L781.96 544.153L538.46 438.443H537.43L780.48 544.523L838.19 556.283L948.76 601.553Z" fill="#3548A0"/>
<path d="M783.39 600.903H786.39L587.24 489.863L597.36 484.433L507.77 438.363H506.74L595.44 484.263L585.25 489.673L783.39 600.903Z" fill="#3548A0"/>
<path d="M1019.31 601.553H1022.32L575.57 438.443H574.54L1019.31 601.553Z" fill="#3548A0"/>
<path d="M679.8 601.553H682.81L459.07 438.443H458.04L679.8 601.553Z" fill="#3548A0"/>
<path d="M575.05 601.553H578.05L497.21 516.443L466.36 508.753L410.22 438.443H409.19L464.67 508.993L495.49 516.713L575.05 601.553Z" fill="#3548A0"/>
<path d="M397.13 601.553H400.13L389.47 555.873L357.83 544.153L349.17 438.443H348.14L355.55 544.523L387.11 556.283L397.13 601.553Z" fill="#3548A0"/>
<path d="M233.21 600.903H236.21L283.72 489.863L305.9 484.433L318.64 438.363H317.61L304.37 484.263L282.15 489.673L233.21 600.903Z" fill="#3548A0"/>
<path d="M467.68 601.553H470.68L386.28 438.443H385.25L467.68 601.553Z" fill="#3548A0"/>
<path d="M35.7599 601.553H38.7599L94.58 555.873L80 544.153L225.16 438.443H224.13L77.18 544.523L91.62 556.283L35.7599 601.553Z" fill="#3548A0"/>
<path d="M-127.2 600.903H-124.21L84.89 489.863L114.98 484.433L194.75 438.363H193.72L113.69 484.263L83.59 489.673L-127.2 600.903Z" fill="#3548A0"/>
<path d="M-233.2 601.553H-230.19L145.77 438.443H144.74L-233.2 601.553Z" fill="#3548A0"/>
<path d="M-337.95 601.553H-334.94L-102.86 516.443L-105.44 508.753L96.93 438.443H95.89L-108.02 508.993L-105.57 516.713L-337.95 601.553Z" fill="#3548A0"/>
<path d="M35.7599 601.553H38.7599L94.58 555.873L80 544.153L225.16 438.443H224.13L77.18 544.523L91.62 556.283L35.7599 601.553Z" fill="#3548A0"/>
<path d="M-127.2 600.903H-124.21L84.89 489.863L114.98 484.433L194.75 438.363H193.72L113.69 484.263L83.59 489.673L-127.2 600.903Z" fill="#3548A0"/>
<path d="M-233.2 601.553H-230.19L145.77 438.443H144.74L-233.2 601.553Z" fill="#3548A0"/>
<path d="M-337.95 601.553H-334.94L-102.86 516.443L-105.44 508.753L96.93 438.443H95.89L-108.02 508.993L-105.57 516.713L-337.95 601.553Z" fill="#3548A0"/>
<path d="M35.7599 601.553H38.7599L94.58 555.873L80 544.153L225.16 438.443H224.13L77.18 544.523L91.62 556.283L35.7599 601.553Z" fill="#3548A0"/>
<path d="M-127.2 600.903H-124.21L84.89 489.863L114.98 484.433L194.75 438.363H193.72L113.69 484.263L83.59 489.673L-127.2 600.903Z" fill="#3548A0"/>
<path d="M-233.2 601.553H-230.19L145.77 438.443H144.74L-233.2 601.553Z" fill="#3548A0"/>
<path d="M-337.95 601.553H-334.94L-102.86 516.443L-105.44 508.753L96.93 438.443H95.89L-108.02 508.993L-105.57 516.713L-337.95 601.553Z" fill="#3548A0"/>
<path d="M35.7599 601.553H38.7599L94.58 555.873L80 544.153L225.16 438.443H224.13L77.18 544.523L91.62 556.283L35.7599 601.553Z" fill="#3548A0"/>
<path d="M-127.2 600.903H-124.21L84.89 489.863L114.98 484.433L194.75 438.363H193.72L113.69 484.263L83.59 489.673L-127.2 600.903Z" fill="#3548A0"/>
<path d="M-233.2 601.553H-230.19L145.77 438.443H144.74L-233.2 601.553Z" fill="#3548A0"/>
<path d="M-337.95 601.553H-334.94L-102.86 516.443L-105.44 508.753L96.93 438.443H95.89L-108.02 508.993L-105.57 516.713L-337.95 601.553Z" fill="#3548A0"/>
<path d="M-502.15 592.903H-499.15L16.15 429.793H15.12L-502.15 592.903Z" fill="#3548A0"/>
<path d="M128.17 601.553H131.18L269.77 438.443H268.74L128.17 601.553Z" fill="#3548A0"/>
</g>
</g>
<path opacity="0.7" d="M138.24 210.993C138.616 210.993 138.92 210.344 138.92 209.543C138.92 208.742 138.616 208.093 138.24 208.093C137.864 208.093 137.56 208.742 137.56 209.543C137.56 210.344 137.864 210.993 138.24 210.993Z" fill="#44BDE2"/>
<path opacity="0.7" d="M6.20001 159.723C6.57557 159.723 6.88 159.074 6.88 158.273C6.88 157.472 6.57557 156.823 6.20001 156.823C5.82446 156.823 5.52002 157.472 5.52002 158.273C5.52002 159.074 5.82446 159.723 6.20001 159.723Z" fill="#44BDE2"/>
<path opacity="0.7" d="M123.8 171.273C124.176 171.273 124.48 170.624 124.48 169.823C124.48 169.022 124.176 168.373 123.8 168.373C123.424 168.373 123.12 169.022 123.12 169.823C123.12 170.624 123.424 171.273 123.8 171.273Z" fill="#44BDE2"/>
<path opacity="0.7" d="M0.679993 245.863C1.05555 245.863 1.36002 245.214 1.36002 244.413C1.36002 243.612 1.05555 242.963 0.679993 242.963C0.304439 242.963 0 243.612 0 244.413C0 245.214 0.304439 245.863 0.679993 245.863Z" fill="#44BDE2"/>
<path opacity="0.7" d="M115.99 133.043C116.366 133.043 116.67 132.394 116.67 131.593C116.67 130.792 116.366 130.143 115.99 130.143C115.614 130.143 115.31 130.792 115.31 131.593C115.31 132.394 115.614 133.043 115.99 133.043Z" fill="#44BDE2"/>
<path opacity="0.7" d="M97.12 164.643C97.4956 164.643 97.8 163.994 97.8 163.193C97.8 162.392 97.4956 161.743 97.12 161.743C96.7445 161.743 96.44 162.392 96.44 163.193C96.44 163.994 96.7445 164.643 97.12 164.643Z" fill="#44BDE2"/>
<path opacity="0.7" d="M57.67 212.433C58.0456 212.433 58.35 211.784 58.35 210.983C58.35 210.182 58.0456 209.533 57.67 209.533C57.2945 209.533 56.99 210.182 56.99 210.983C56.99 211.784 57.2945 212.433 57.67 212.433Z" fill="#44BDE2"/>
<path opacity="0.7" d="M146.66 269.813C146.848 269.813 147 269.491 147 269.093C147 268.695 146.848 268.373 146.66 268.373C146.472 268.373 146.32 268.695 146.32 269.093C146.32 269.491 146.472 269.813 146.66 269.813Z" fill="#44BDE2"/>
<path opacity="0.7" d="M0.679993 188.993C0.867769 188.993 1.02002 188.671 1.02002 188.273C1.02002 187.875 0.867769 187.553 0.679993 187.553C0.492216 187.553 0.339996 187.875 0.339996 188.273C0.339996 188.671 0.492216 188.993 0.679993 188.993Z" fill="#44BDE2"/>
<path opacity="0.7" d="M311.9 187.203C312.276 187.203 312.58 186.554 312.58 185.753C312.58 184.952 312.276 184.303 311.9 184.303C311.524 184.303 311.22 184.952 311.22 185.753C311.22 186.554 311.524 187.203 311.9 187.203Z" fill="#44BDE2"/>
<path opacity="0.7" d="M179.85 135.943C180.226 135.943 180.53 135.294 180.53 134.493C180.53 133.692 180.226 133.043 179.85 133.043C179.474 133.043 179.17 133.692 179.17 134.493C179.17 135.294 179.474 135.943 179.85 135.943Z" fill="#44BDE2"/>
<path opacity="0.7" d="M297.46 147.493C297.836 147.493 298.14 146.844 298.14 146.043C298.14 145.242 297.836 144.593 297.46 144.593C297.084 144.593 296.78 145.242 296.78 146.043C296.78 146.844 297.084 147.493 297.46 147.493Z" fill="#44BDE2"/>
<path opacity="0.7" d="M173.65 220.633C173.65 221.423 173.96 222.073 174.34 222.073C174.72 222.073 175.02 221.423 175.02 220.633C175.02 219.843 174.71 219.183 174.34 219.183C173.97 219.183 173.65 219.833 173.65 220.633Z" fill="#44BDE2"/>
<path opacity="0.7" d="M289.64 109.263C290.016 109.263 290.32 108.614 290.32 107.813C290.32 107.012 290.016 106.363 289.64 106.363C289.264 106.363 288.96 107.012 288.96 107.813C288.96 108.614 289.264 109.263 289.64 109.263Z" fill="#44BDE2"/>
<path opacity="0.7" d="M270.78 140.853C271.156 140.853 271.46 140.204 271.46 139.403C271.46 138.602 271.156 137.953 270.78 137.953C270.404 137.953 270.1 138.602 270.1 139.403C270.1 140.204 270.404 140.853 270.78 140.853Z" fill="#44BDE2"/>
<path opacity="0.7" d="M231.33 188.653C231.706 188.653 232.01 188.004 232.01 187.203C232.01 186.402 231.706 185.753 231.33 185.753C230.954 185.753 230.65 186.402 230.65 187.203C230.65 188.004 230.954 188.653 231.33 188.653Z" fill="#44BDE2"/>
<path opacity="0.7" d="M340.91 140.223C341.098 140.223 341.25 139.901 341.25 139.503C341.25 139.105 341.098 138.783 340.91 138.783C340.722 138.783 340.57 139.105 340.57 139.503C340.57 139.901 340.722 140.223 340.91 140.223Z" fill="#44BDE2"/>
<path opacity="0.7" d="M174.33 165.213C174.518 165.213 174.67 164.891 174.67 164.493C174.67 164.095 174.518 163.773 174.33 163.773C174.142 163.773 173.99 164.095 173.99 164.493C173.99 164.891 174.142 165.213 174.33 165.213Z" fill="#44BDE2"/>
<path d="M339.97 555.153C443.231 555.153 526.94 540.007 526.94 521.323C526.94 502.639 443.231 487.493 339.97 487.493C236.709 487.493 153 502.639 153 521.323C153 540.007 236.709 555.153 339.97 555.153Z" fill="white"/>
<path d="M262.85 458.113C252.58 454.783 246.34 456.853 245.32 462.233C244.3 467.613 236.02 497.423 238.5 500.733C240.98 504.043 256.3 506.493 256.3 506.493L262.85 458.113Z" fill="#D19834"/>
<path d="M255 192.873C273.17 171.493 332 186.953 341.58 185.873C351.2 186.943 409.99 171.483 428.16 192.873C446.33 214.263 372.58 264.483 341.58 264.483C310.58 264.483 236.82 214.253 255 192.873Z" fill="#25214C"/>
<path d="M282 113.403C282 113.403 268 137.003 249.4 141.343C230.8 145.683 227.86 133.053 227.86 133.053C227.86 133.053 229.1 155.173 262.79 148.653C262.79 148.653 262.57 167.083 239.68 170.803C239.68 170.803 270.05 200.123 311 187.733C351.95 175.343 282 113.403 282 113.403Z" fill="#D063E0"/>
<path d="M396.49 113.403C396.49 113.403 410.54 137.013 429.13 141.343C447.72 145.673 450.67 133.053 450.67 133.053C450.67 133.053 449.43 155.173 415.74 148.653C415.74 148.653 415.96 167.083 438.85 170.803C438.85 170.803 408.48 200.123 367.53 187.733C326.58 175.343 396.49 113.403 396.49 113.403Z" fill="#D063E0"/>
<path d="M280.72 74.2429C280.72 74.2429 279.98 52.1829 288.07 44.9429C296.16 37.7029 315.64 29.4329 318.21 21.1629C320.78 12.8929 330 -4.68706 350.56 1.17294C371.12 7.03294 366 18.0629 369.31 21.1729C372.62 24.2829 425.92 52.2729 406.07 78.0829C386.22 103.893 280.72 74.2429 280.72 74.2429Z" fill="#8356DB"/>
<path d="M274.84 98.363C274.84 98.363 265.28 80.103 267.84 71.143C270.4 62.183 368.2 30.143 415.25 79.413C415.25 79.413 406.06 96.643 399.44 103.533C399.45 103.533 346.89 82.163 274.84 98.363Z" fill="#6B47C4"/>
<path d="M339.52 228.403C318.52 228.643 296.52 240.813 296.52 240.813L266.52 324.713L303.87 409.243L289 426.003C289 426.003 316.56 456.073 398.13 426.453L406 406.393L388.86 381.393L386.68 238.163C386.68 238.163 364.25 228.123 339.52 228.403Z" fill="#483AA9"/>
<mask id="mask1_33_287" style="mask-type:luminance" maskUnits="userSpaceOnUse" x="266" y="228" width="140" height="212">
<path d="M339.52 228.403C318.52 228.643 296.52 240.813 296.52 240.813L266.52 324.713L303.87 409.243L289 426.003C289 426.003 316.56 456.073 398.13 426.453L406 406.393L388.86 381.393L386.68 238.163C386.68 238.163 364.25 228.123 339.52 228.403Z" fill="white"/>
</mask>
<g mask="url(#mask1_33_287)">
<path d="M383.11 250.843C383.11 250.843 342.93 278.103 340.37 280.843C337.81 283.583 301.62 257.163 296 255.783C290.38 254.403 297.66 386.563 297.66 386.563C297.66 386.563 349.54 377.633 386.57 386.223L383.11 250.843Z" fill="#483AA9"/>
<mask id="mask2_33_287" style="mask-type:luminance" maskUnits="userSpaceOnUse" x="293" y="250" width="94" height="137">
<path d="M383.11 250.843C383.11 250.843 342.93 278.103 340.37 280.843C337.81 283.583 301.62 257.163 296 255.783C290.38 254.403 297.66 386.563 297.66 386.563C297.66 386.563 349.54 377.633 386.57 386.223L383.11 250.843Z" fill="white"/>
</mask>
<g mask="url(#mask2_33_287)">
<path d="M387.27 277.533C387.27 277.533 343.85 310.253 340.75 309.593C337.65 308.933 275.53 274.273 275.53 274.273L271.68 235.273L400.87 238.583L387.27 277.583" fill="#25214C"/>
<path d="M393.71 378.613C393.71 378.613 327.94 362.693 282.35 379.843L296 397.943L391.85 393.713L393.71 378.613Z" fill="#25214C"/>
</g>
</g>
<path d="M427.75 470.173C427.75 470.173 451.37 475.363 452.4 481.003C453.43 486.643 431.5 481.003 431.5 481.003L427.75 470.173Z" fill="#472D87"/>
<path d="M322.63 186.933L340.37 196.833L358.1 186.933L354.34 234.853C349.915 236.123 345.351 236.845 340.75 237.003H340C335.404 236.855 330.843 236.143 326.42 234.883L322.63 186.933Z" fill="#CC6A56"/>
<mask id="mask3_33_287" style="mask-type:luminance" maskUnits="userSpaceOnUse" x="322" y="186" width="37" height="52">
<path d="M322.63 186.933L340.37 196.833L358.1 186.933L354.34 234.853C349.915 236.123 345.351 236.845 340.75 237.003H340C335.404 236.855 330.843 236.143 326.42 234.883L322.63 186.933Z" fill="white"/>
</mask>
<g mask="url(#mask3_33_287)">
<path d="M358.1 186.243C358.1 186.243 351.91 206.003 340.66 206.003C329.41 206.003 321.76 182.913 321.76 182.913L358.1 186.253" fill="#A04738"/>
<path d="M359.66 210.943C359.66 210.943 345.2 226.063 320.44 211.383L322.63 242.263H362.29L359.66 210.943Z" fill="#483AA9"/>
</g>
<path d="M391.23 125.163C391.23 125.163 403.14 113.283 412.49 125.163C421.84 137.043 417.16 158.763 387.02 161.573C387 161.573 380.18 134.253 391.23 125.163Z" fill="#CC6A56"/>
<path d="M389.22 140.723C389.22 140.723 396.22 121.093 405.14 127.093C414.06 133.093 409.75 154.673 392.7 156.543C375.65 158.413 399.79 147.713 398.88 142.543C397.97 137.373 386.58 146.503 389.22 140.723Z" fill="#A04738"/>
<path d="M291.38 125.163C291.38 125.163 279.47 113.283 270.12 125.163C260.77 137.043 265.45 158.763 295.59 161.573C295.59 161.573 302.43 134.253 291.38 125.163Z" fill="#CC6A56"/>
<path d="M293.39 140.723C293.39 140.723 286.34 121.093 277.47 127.093C268.6 133.093 272.86 154.673 289.91 156.543C306.96 158.413 282.82 147.713 283.73 142.543C284.64 137.373 296 146.503 293.39 140.723Z" fill="#A04738"/>
<path d="M295.37 133.003L341.22 125.153L387.07 133.003C387.07 133.003 395.36 144.593 393.41 154.433C391.27 165.273 350.36 198.803 340.75 199.433C330.4 200.083 289.93 165.883 289.03 154.433C288.23 144.443 295.37 133.003 295.37 133.003Z" fill="#F29875"/>
<mask id="mask4_33_287" style="mask-type:luminance" maskUnits="userSpaceOnUse" x="288" y="125" width="106" height="75">
<path d="M295.37 133.003L341.22 125.153L387.07 133.003C387.07 133.003 395.36 144.593 393.41 154.433C391.27 165.273 350.36 198.803 340.75 199.433C330.4 200.083 289.93 165.883 289.03 154.433C288.23 144.443 295.37 133.003 295.37 133.003Z" fill="white"/>
</mask>
<g mask="url(#mask4_33_287)">
<path d="M391.83 142.133C391.83 142.133 393.4 156.013 384.93 165.473C376.46 174.933 353.32 198.873 353.32 198.873L400.87 160.813L398.12 144.753L391.83 142.133Z" fill="#FFDACF"/>
<path d="M290.79 143.213C290.79 143.213 289.21 157.093 297.68 166.543C306.15 175.993 329.29 200.003 329.29 200.003L281.74 161.943L284.49 145.873L290.79 143.263" fill="#FFDACF"/>
</g>
<path d="M312.82 81.363C331.662 78.733 350.778 78.733 369.62 81.363C381.737 82.9738 393.665 85.7774 405.23 89.733C406.155 90.061 406.933 90.706 407.428 91.5537C407.922 92.4013 408.1 93.3966 407.93 94.363C406.14 104.633 399.65 134.703 384.93 136.903C372.928 138.792 360.635 137.087 349.6 132.003C349.083 131.735 348.594 131.417 348.14 131.053C346.145 129.554 343.716 128.743 341.22 128.743C338.724 128.743 336.296 129.554 334.3 131.053C328.02 134.593 316.64 139.273 297.51 136.863C282.78 134.663 276.3 104.593 274.51 94.323C274.34 93.3566 274.518 92.3613 275.012 91.5137C275.507 90.666 276.285 90.021 277.21 89.693C288.777 85.7497 300.705 82.9595 312.82 81.363Z" fill="#25214C"/>
<path d="M348.32 144.833C348.32 145.733 344.93 146.453 340.75 146.453C336.57 146.453 333.19 145.733 333.19 144.833C333.19 143.933 336.58 143.213 340.75 143.213C344.92 143.213 348.32 143.933 348.32 144.833Z" fill="#CC6A56"/>
<path d="M398.12 426.463C437.82 461.703 437.82 518.693 437.82 518.693C399.43 526.993 387.82 528.973 359.66 525.823C356 525.413 351.27 478.593 347.77 478.643L338.84 479.333C335.48 492.173 320.93 527.333 318.84 527.333C258.32 527.263 245.34 519.233 245.34 519.233C245.34 492.503 257.73 453.663 289.01 425.993C318.93 440.753 355.92 439.523 398.12 426.463Z" fill="#EFCE43"/>
<mask id="mask5_33_287" style="mask-type:luminance" maskUnits="userSpaceOnUse" x="245" y="425" width="193" height="103">
<path d="M398.12 426.463C437.82 461.703 437.82 518.693 437.82 518.693C399.43 526.993 387.82 528.973 359.66 525.823C356 525.413 351.27 478.593 347.77 478.643L338.84 479.333C335.48 492.173 320.93 527.333 318.84 527.333C258.32 527.263 245.34 519.233 245.34 519.233C245.34 492.503 257.73 453.663 289.01 425.993C318.93 440.753 355.92 439.523 398.12 426.463Z" fill="white"/>
</mask>
<g mask="url(#mask5_33_287)">
<path d="M272.54 443.643C272.54 443.643 242.21 499.323 245.32 540.643C248.43 581.963 230.19 522.803 230.19 522.803L234.25 473.803L272.54 443.653" fill="#FFF7D4"/>
<path d="M409.59 433.643C409.59 433.643 439.91 489.323 436.8 530.643C433.69 571.963 451.93 512.803 451.93 512.803L447.88 463.753L409.59 433.613" fill="#FFF7D4"/>
</g>
<path d="M289 426.003L274 434.773C274 434.773 329.2 500.513 457.1 506.483L452.4 481.003C452.4 481.003 333.64 481.373 289 426.003Z" fill="#D063E0"/>
<path d="M457.07 277.533C457.07 277.533 465.89 257.533 454.29 244.063C442.69 230.593 426 228.403 419.42 232.453C411.99 237.063 400.75 237.103 390.02 233.643C390.02 233.643 355.02 293.723 354.5 318.783C353.98 343.843 396.71 415.323 398.12 426.463C399.53 437.603 399.32 441.783 408.47 442.703C417.62 443.623 457.08 449.203 464.04 416.703C471 384.203 418.77 343.243 416.81 337.503C414.85 331.763 428.64 328.563 432.65 322.503C436.66 316.443 457.07 277.533 457.07 277.533Z" fill="#8356DB"/>
<mask id="mask6_33_287" style="mask-type:luminance" maskUnits="userSpaceOnUse" x="354" y="230" width="111" height="214">
<path d="M457.07 277.533C457.07 277.533 465.89 257.533 454.29 244.063C442.69 230.593 426 228.403 419.42 232.453C411.99 237.063 400.75 237.103 390.02 233.643C390.02 233.643 355.02 293.723 354.5 318.783C353.98 343.843 396.71 415.323 398.12 426.463C399.53 437.603 399.32 441.783 408.47 442.703C417.62 443.623 457.08 449.203 464.04 416.703C471 384.203 418.77 343.243 416.81 337.503C414.85 331.763 428.64 328.563 432.65 322.503C436.66 316.443 457.07 277.533 457.07 277.533Z" fill="white"/>
</mask>
<g mask="url(#mask6_33_287)">
<path opacity="0.23" d="M541.19 420.003C541.19 439.943 445.92 459.533 393.68 459.533C341.44 459.533 352.25 331.913 352.25 312.003C352.25 292.093 380.74 400.103 446.6 383.893C497.32 371.383 541.19 400.003 541.19 420.003Z" fill="#472D87"/>
<path d="M419.42 332.203C411.68 339.063 457.92 388.673 464.04 416.713C470.16 444.753 505.78 413.713 505.78 413.713L449.32 353.443L419.42 332.193" fill="#D5BBFF"/>
<path d="M460 259.623C460 259.623 447.12 226.623 419.38 232.453C391.64 238.283 442.09 212.543 442.09 212.543L457.03 224.543L464.68 245.003C464.95 245.723 460.04 259.653 460.04 259.653" fill="#D5BBFF"/>
</g>
<path d="M473.53 291.943C473.53 291.943 449.32 308.773 449.32 329.413C449.32 350.053 491.63 331.413 507.17 306.913C507.17 306.913 493 317.283 473.53 291.943Z" fill="#F29875"/>
<mask id="mask7_33_287" style="mask-type:luminance" maskUnits="userSpaceOnUse" x="449" y="291" width="59" height="48">
<path d="M473.53 291.943C473.53 291.943 449.32 308.773 449.32 329.413C449.32 350.053 491.63 331.413 507.17 306.913C507.17 306.913 493 317.283 473.53 291.943Z" fill="white"/>
</mask>
<g mask="url(#mask7_33_287)">
<path opacity="0.69" d="M468.26 287.873C468.26 287.873 439.68 313.323 445.55 325.873C451.42 338.423 489.46 333.983 498.13 306.013C506.8 278.043 468.26 287.873 468.26 287.873Z" fill="#CC6A56"/>
</g>
<path d="M449.32 284.003C449.32 284.003 429.7 290.003 428.22 320.003C436.312 324.562 444.024 329.765 451.28 335.563C451.28 335.563 441.37 315.953 473.53 292.003L449.32 284.003Z" fill="#8356DB"/>
<path d="M457.07 196.323C457.07 200.633 467.16 224.643 469.07 247.753L479.49 243.093C479.49 243.093 473.05 213.713 471.68 205.783C469.13 191.273 457.07 192.003 457.07 196.323Z" fill="#F29875"/>
<path d="M481.63 186.373C480.63 191.163 485.02 219.883 481.56 245.943L492.83 242.873C492.83 242.873 493.25 208.873 493.73 199.823C494.6 183.193 482.62 181.583 481.63 186.373Z" fill="#F29875"/>
<path d="M507 193.453C505.09 197.883 503.42 226.393 494.86 250.843L506.17 250.043C506.17 250.043 513.45 217.403 515.74 208.723C519.94 192.863 508.92 189.003 507 193.453Z" fill="#F29875"/>
<path d="M523.31 212.683C521.18 216.293 517.15 241.023 507.17 261.223L517.59 262.123C517.59 262.123 527.11 234.573 529.97 227.303C535.2 214.003 525.44 209.073 523.31 212.683Z" fill="#F29875"/>
<path d="M460 269.133C452.1 263.723 437.57 265.803 437.79 270.133C438.01 274.463 436.92 278.793 444.28 282.043C451.64 285.293 467 289.183 467 289.183C467 289.183 467.76 274.403 460 269.133Z" fill="#F29875"/>
<path d="M501.18 309.573C484.6 310.213 473.53 291.943 473.53 291.943L467 289.183C467 289.183 465.62 273.273 460.08 269.133H470.08L469.08 247.753C469.08 247.753 495.84 231.373 520.08 255.223C520 255.223 519.16 308.883 501.18 309.573Z" fill="#25214C"/>
<path d="M222.89 279.393C222.89 279.393 214.06 259.393 225.67 245.923C237.28 232.453 253.99 230.263 260.54 234.313C267.97 238.923 282.64 237.983 293.37 234.523C293.37 234.523 324.99 295.583 325.46 320.643C325.93 345.703 283.25 417.183 281.84 428.323C280.43 439.463 280.64 443.643 271.49 444.573C262.34 445.503 222.88 451.063 215.92 418.573C208.96 386.083 261.19 345.113 263.15 339.373C265.11 333.633 251.32 330.433 247.31 324.373C243.3 318.313 222.89 279.393 222.89 279.393Z" fill="#8356DB"/>
<mask id="mask8_33_287" style="mask-type:luminance" maskUnits="userSpaceOnUse" x="215" y="232" width="111" height="214">
<path d="M222.89 279.393C222.89 279.393 214.06 259.393 225.67 245.923C237.28 232.453 253.99 230.263 260.54 234.313C267.97 238.923 282.64 237.983 293.37 234.523C293.37 234.523 324.99 295.583 325.46 320.643C325.93 345.703 283.25 417.183 281.84 428.323C280.43 439.463 280.64 443.643 271.49 444.573C262.34 445.503 222.88 451.063 215.92 418.573C208.96 386.083 261.19 345.113 263.15 339.373C265.11 333.633 251.32 330.433 247.31 324.373C243.3 318.313 222.89 279.393 222.89 279.393Z" fill="white"/>
</mask>
<g mask="url(#mask8_33_287)">
<path opacity="0.23" d="M138.77 421.833C138.77 441.773 234.04 461.363 286.28 461.363C338.52 461.363 327.71 333.773 327.71 313.833C327.71 293.893 299.22 401.933 233.36 385.723C182.63 373.243 138.77 401.893 138.77 421.833Z" fill="#472D87"/>
<path d="M259.14 335.653C266.88 342.513 220.65 392.123 214.53 420.173C208.41 448.223 172.78 417.173 172.78 417.173L229.25 356.903L259.14 335.653Z" fill="#D5BBFF"/>
<path d="M219.91 261.483C219.91 261.483 232.8 228.483 260.54 234.313C288.28 240.143 237.83 214.403 237.83 214.403L222.89 226.403L215.28 246.823C215.01 247.543 219.91 261.473 219.91 261.473" fill="#D5BBFF"/>
</g>
<path d="M206.43 293.803C206.43 293.803 230.64 310.633 230.64 331.273C230.64 351.913 188.33 333.273 172.78 308.783C172.78 308.783 187 319.153 206.43 293.803Z" fill="#F29875"/>
<mask id="mask9_33_287" style="mask-type:luminance" maskUnits="userSpaceOnUse" x="172" y="293" width="59" height="48">
<path d="M206.43 293.803C206.43 293.803 230.64 310.633 230.64 331.273C230.64 351.913 188.33 333.273 172.78 308.783C172.78 308.783 187 319.153 206.43 293.803Z" fill="white"/>
</mask>
<g mask="url(#mask9_33_287)">
<path opacity="0.69" d="M211.7 289.743C211.7 289.743 240.28 315.183 234.41 327.743C228.54 340.303 190.5 335.853 181.83 307.883C173.16 279.913 211.7 289.743 211.7 289.743Z" fill="#CC6A56"/>
</g>
<path d="M230.64 285.833C230.64 285.833 250.26 291.833 251.74 321.833C243.648 326.392 235.936 331.595 228.68 337.393C228.68 337.393 238.59 317.783 206.43 293.833L230.64 285.833Z" fill="#8356DB"/>
<path d="M222.89 198.183C222.89 202.503 212.8 226.513 210.89 249.613L200.51 245.003C200.51 245.003 206.95 215.623 208.32 207.683C210.83 193.133 222.89 193.873 222.89 198.183Z" fill="#F29875"/>
<path d="M198.33 188.233C199.33 193.023 194.94 221.753 198.4 247.803L187.13 244.733C187.13 244.733 186.71 210.783 186.23 201.733C185.36 185.053 197.34 183.443 198.33 188.233Z" fill="#F29875"/>
<path d="M173 195.313C174.91 199.743 176.58 228.253 185.13 252.703L173.83 251.903C173.83 251.903 166.55 219.263 164.26 210.583C160 194.723 171 190.883 173 195.313Z" fill="#F29875"/>
<path d="M156.65 214.543C158.78 218.153 162.81 242.883 172.78 263.083L162.37 263.983C162.37 263.983 152.84 236.433 149.99 229.163C144.76 215.863 154.52 210.933 156.65 214.543Z" fill="#F29875"/>
<path d="M219.91 271.003C227.82 265.593 242.35 267.673 242.13 272.003C241.91 276.333 243 280.663 235.64 283.913C228.28 287.163 213 291.003 213 291.003C213 291.003 212.2 276.263 219.91 271.003Z" fill="#F29875"/>
<path d="M178.77 311.443C195.36 312.073 206.43 293.803 206.43 293.803L213 291.003C213 291.003 214.38 275.103 219.91 270.953H209.91L210.91 249.573C210.91 249.573 184.15 233.193 159.91 257.043C160 257.083 160.8 310.743 178.77 311.443Z" fill="#25214C"/>
<path d="M380 110.763C355.57 101.653 325 100.603 300.76 110.763C326.81 107.883 353.88 108.923 380 110.763Z" fill="#44BDE2"/>
<path d="M419.36 186.363C444.76 203.583 391.22 206.823 378.25 255.243L400.87 244.123C405.721 237.48 410.992 231.154 416.65 225.183C428.84 212.573 441.41 193.113 419.36 186.363Z" fill="#8356DB"/>
<path d="M262 187.263C236.61 204.493 291.71 209.563 304.69 257.983L280.25 244.123C275.397 237.478 270.123 231.152 264.46 225.183C252.29 212.573 240 194.003 262 187.263Z" fill="#8356DB"/>
<path d="M290 330.213C308.44 316.913 299.74 296.353 292.74 279.823C291.6 277.133 290.53 274.593 289.62 272.183C287.84 267.523 287.87 263.853 289.71 261.283C292.99 256.713 301.01 256.933 301.09 256.943L301.15 255.253C300.78 255.253 292.15 254.983 288.34 260.253C286.15 263.313 286.05 267.513 288.04 272.753C288.96 275.173 290.04 277.753 291.19 280.443C297.95 296.443 306.36 316.293 289.01 328.803L290 330.213Z" fill="#D5BBFF"/>
<path d="M283.43 341.453C283.773 341.452 284.107 341.347 284.389 341.152C284.671 340.958 284.887 340.683 285.01 340.363C286.401 336.795 288.412 333.501 290.95 330.633C291.243 330.293 291.389 329.851 291.356 329.404C291.324 328.957 291.115 328.541 290.775 328.248C290.436 327.955 289.994 327.809 289.546 327.841C289.099 327.874 288.683 328.083 288.39 328.423C285.594 331.586 283.38 335.218 281.85 339.153C281.772 339.362 281.736 339.584 281.743 339.807C281.751 340.029 281.803 340.248 281.896 340.451C281.989 340.654 282.121 340.836 282.285 340.987C282.449 341.139 282.641 341.256 282.85 341.333C283.034 341.408 283.231 341.449 283.43 341.453Z" fill="#25214C"/>
<path d="M393.12 330.213C374.69 316.913 383.39 296.353 390.38 279.823C391.52 277.133 392.6 274.593 393.51 272.183C395.28 267.523 395.25 263.853 393.41 261.283C390.14 256.713 382.12 256.933 382.03 256.943L381.97 255.253C382.35 255.253 390.97 254.983 394.78 260.253C396.98 263.313 397.08 267.513 395.09 272.753C394.17 275.173 393.09 277.753 391.94 280.443C385.18 296.443 376.77 316.293 394.11 328.803L393.12 330.213Z" fill="#D5BBFF"/>
<path d="M399.71 341.453C399.367 341.452 399.033 341.347 398.751 341.152C398.47 340.958 398.253 340.683 398.13 340.363C396.747 336.793 394.739 333.498 392.2 330.633C392.055 330.465 391.944 330.27 391.875 330.059C391.805 329.848 391.777 329.626 391.794 329.404C391.81 329.183 391.87 328.967 391.969 328.768C392.069 328.57 392.207 328.393 392.375 328.248C392.543 328.103 392.738 327.992 392.949 327.922C393.16 327.853 393.382 327.825 393.604 327.841C393.825 327.858 394.041 327.917 394.24 328.017C394.438 328.117 394.615 328.255 394.76 328.423C397.55 331.588 399.76 335.221 401.29 339.153C401.368 339.362 401.405 339.584 401.397 339.807C401.389 340.029 401.337 340.248 401.244 340.451C401.151 340.654 401.019 340.836 400.855 340.987C400.691 341.139 400.499 341.256 400.29 341.333C400.105 341.407 399.909 341.448 399.71 341.453Z" fill="#25214C"/>
<path d="M416.644 380.119C421.443 373.694 420.125 364.596 413.701 359.796C407.276 354.997 398.177 356.315 393.378 362.739C388.579 369.164 389.897 378.263 396.321 383.062C402.746 387.861 411.844 386.543 416.644 380.119Z" fill="#25214C"/>
<path d="M416.182 380.206C421.612 374.305 421.23 365.119 415.329 359.689C409.428 354.259 400.242 354.641 394.812 360.542C389.382 366.443 389.764 375.629 395.665 381.059C401.566 386.489 410.752 386.107 416.182 380.206Z" fill="white"/>
<path d="M403.859 368.697L406.693 368.309L406.305 365.476L403.471 365.863L403.859 368.697Z" fill="#D063E0"/>
<path d="M406.36 365.455L409.193 365.067L408.806 362.233L405.972 362.621L406.36 365.455Z" fill="#D063E0"/>
<path d="M409.199 365.065L412.032 364.677L411.645 361.843L408.811 362.231L409.199 365.065Z" fill="#D063E0"/>
<path d="M407.906 376.799L410.739 376.412L410.352 373.578L407.518 373.966L407.906 376.799Z" fill="#D063E0"/>
<path d="M405.425 380.022L408.258 379.634L407.871 376.8L405.037 377.188L405.425 380.022Z" fill="#D063E0"/>
<path d="M410.356 373.572L413.19 373.184L412.802 370.35L409.968 370.738L410.356 373.572Z" fill="#D063E0"/>
<path d="M415.601 369.968L415.213 367.134L412.38 367.522L412.768 370.356L415.601 369.968Z" fill="#D063E0"/>
<path d="M415.212 367.136L414.824 364.303L411.991 364.691L412.378 367.524L415.212 367.136Z" fill="#D063E0"/>
<path d="M406.261 365.502L403.428 365.889L403.815 368.723L406.649 368.335L406.261 365.502Z" fill="#D063E0"/>
<path d="M402.991 363.067L400.157 363.455L400.545 366.289L403.378 365.901L402.991 363.067Z" fill="#D063E0"/>
<path d="M400.16 363.457L397.326 363.845L397.714 366.679L400.547 366.291L400.16 363.457Z" fill="#D063E0"/>
<path d="M404.555 374.411L401.721 374.799L402.109 377.633L404.942 377.245L404.555 374.411Z" fill="#D063E0"/>
<path d="M407.815 376.857L404.982 377.245L405.369 380.078L408.203 379.69L407.815 376.857Z" fill="#D063E0"/>
<path d="M401.322 371.962L398.489 372.349L398.877 375.183L401.71 374.795L401.322 371.962Z" fill="#D063E0"/>
<path d="M398.502 372.323L398.115 369.489L395.281 369.877L395.669 372.711L398.502 372.323Z" fill="#D063E0"/>
<path d="M398.093 369.472L397.705 366.638L394.872 367.026L395.26 369.859L398.093 369.472Z" fill="#D063E0"/>
<path d="M362.63 154.133C362.63 154.133 351.13 159.133 339.52 159.133C332.571 159.146 325.728 157.428 319.61 154.133C319.61 154.133 323.53 161.573 339.07 161.573C354.61 161.573 362.63 154.133 362.63 154.133Z" fill="#A04738"/>
<path d="M316.22 157.113C316.22 157.113 321.52 155.113 322.17 151.113L316.22 157.113Z" fill="#A04738"/>
<path d="M301.83 141.353L300.33 146.753L296.24 149.213L300.39 151.563L301.99 156.943L305.94 153.013L311.12 153.873L309.31 149.083L311.02 144.243L305.84 145.213L301.83 141.353Z" fill="#CC6A56"/>
<path d="M371.92 154.373C372.819 154.373 373.709 154.196 374.54 153.851C375.37 153.507 376.125 153.002 376.76 152.366C377.395 151.73 377.899 150.975 378.242 150.144C378.585 149.313 378.761 148.422 378.76 147.523C378.755 145.947 378.2 144.423 377.19 143.213C378.452 143.436 379.635 143.98 380.625 144.793C381.616 145.605 382.381 146.659 382.847 147.853C383.312 149.046 383.463 150.339 383.285 151.608C383.107 152.877 382.605 154.078 381.829 155.097C381.052 156.116 380.026 156.918 378.85 157.426C377.674 157.934 376.387 158.131 375.112 157.998C373.838 157.865 372.619 157.407 371.574 156.667C370.528 155.927 369.69 154.93 369.14 153.773C370.014 154.167 370.961 154.371 371.92 154.373Z" fill="#CC6A56"/>
<path d="M464.87 119.883C464.87 116.423 465.896 113.041 467.818 110.165C469.741 107.289 472.473 105.047 475.669 103.723C478.866 102.4 482.383 102.054 485.776 102.73C489.169 103.405 492.285 105.072 494.731 107.519C497.176 109.966 498.841 113.084 499.515 116.477C500.189 119.87 499.841 123.387 498.516 126.583C497.19 129.779 494.947 132.51 492.07 134.43C489.192 136.351 485.81 137.375 482.35 137.373C477.714 137.368 473.269 135.523 469.992 132.244C466.715 128.965 464.873 124.519 464.87 119.883ZM469.25 119.883C469.25 122.474 470.018 125.007 471.458 127.161C472.897 129.315 474.943 130.994 477.337 131.986C479.731 132.977 482.365 133.237 484.906 132.731C487.447 132.226 489.781 130.978 491.613 129.146C493.445 127.314 494.693 124.98 495.198 122.439C495.704 119.897 495.444 117.264 494.453 114.87C493.461 112.476 491.782 110.43 489.628 108.991C487.474 107.551 484.941 106.783 482.35 106.783C478.877 106.788 475.548 108.17 473.093 110.626C470.637 113.081 469.255 116.41 469.25 119.883Z" fill="white"/>
<path d="M508.11 108.613H549.46C550.017 108.575 550.538 108.328 550.919 107.92C551.3 107.513 551.512 106.976 551.512 106.418C551.512 105.86 551.3 105.323 550.919 104.916C550.538 104.508 550.017 104.261 549.46 104.223H508.11C507.809 104.203 507.508 104.244 507.224 104.345C506.94 104.447 506.68 104.605 506.459 104.811C506.239 105.017 506.064 105.265 505.944 105.542C505.824 105.818 505.762 106.117 505.762 106.418C505.762 106.719 505.824 107.018 505.944 107.294C506.064 107.57 506.239 107.819 506.459 108.025C506.68 108.231 506.94 108.389 507.224 108.49C507.508 108.592 507.809 108.633 508.11 108.613Z" fill="white"/>
<path d="M508.11 117.003H528.78C529.081 117.023 529.382 116.982 529.666 116.88C529.95 116.779 530.21 116.621 530.431 116.415C530.651 116.209 530.826 115.96 530.946 115.684C531.066 115.408 531.128 115.109 531.128 114.808C531.128 114.507 531.066 114.208 530.946 113.932C530.826 113.655 530.651 113.407 530.431 113.201C530.21 112.995 529.95 112.837 529.666 112.735C529.382 112.634 529.081 112.593 528.78 112.613H508.11C507.809 112.593 507.508 112.634 507.224 112.735C506.94 112.837 506.68 112.995 506.459 113.201C506.239 113.407 506.064 113.655 505.944 113.932C505.824 114.208 505.762 114.507 505.762 114.808C505.762 115.109 505.824 115.408 505.944 115.684C506.064 115.96 506.239 116.209 506.459 116.415C506.68 116.621 506.94 116.779 507.224 116.88C507.508 116.982 507.809 117.023 508.11 117.003Z" fill="white"/>
<path d="M510.45 405.123C511.032 405.123 511.59 404.892 512.002 404.482C512.414 404.072 512.647 403.515 512.65 402.933V361.583C512.67 361.282 512.629 360.98 512.528 360.697C512.426 360.413 512.268 360.152 512.062 359.932C511.856 359.712 511.608 359.537 511.331 359.417C511.055 359.297 510.756 359.235 510.455 359.235C510.154 359.235 509.855 359.297 509.579 359.417C509.303 359.537 509.054 359.712 508.848 359.932C508.642 360.152 508.484 360.413 508.383 360.697C508.281 360.98 508.24 361.282 508.26 361.583V402.933C508.26 403.514 508.491 404.071 508.901 404.481C509.312 404.892 509.869 405.123 510.45 405.123Z" fill="white"/>
<path d="M518.86 405.123C519.442 405.123 520 404.893 520.412 404.482C520.824 404.072 521.057 403.515 521.06 402.933V382.253C521.022 381.696 520.775 381.175 520.367 380.794C519.96 380.413 519.423 380.201 518.865 380.201C518.307 380.201 517.77 380.413 517.363 380.794C516.955 381.175 516.708 381.696 516.67 382.253V402.933C516.67 403.514 516.901 404.071 517.312 404.482C517.722 404.892 518.279 405.123 518.86 405.123Z" fill="white"/>
<path d="M528.18 405.123C528.468 405.123 528.752 405.066 529.018 404.956C529.284 404.846 529.525 404.685 529.729 404.481C529.932 404.278 530.093 404.037 530.203 403.771C530.313 403.505 530.37 403.22 530.37 402.933V390.663C530.37 390.082 530.139 389.525 529.729 389.114C529.318 388.704 528.761 388.473 528.18 388.473C527.599 388.473 527.042 388.704 526.631 389.114C526.221 389.525 525.99 390.082 525.99 390.663V402.933C525.99 403.514 526.221 404.071 526.631 404.481C527.042 404.892 527.599 405.123 528.18 405.123Z" fill="white"/>
<path d="M172.48 405.123C173.061 405.123 173.618 404.892 174.029 404.481C174.439 404.071 174.67 403.514 174.67 402.933V361.583C174.69 361.282 174.649 360.98 174.547 360.697C174.446 360.413 174.288 360.152 174.082 359.932C173.876 359.712 173.628 359.537 173.351 359.417C173.075 359.297 172.776 359.235 172.475 359.235C172.174 359.235 171.875 359.297 171.599 359.417C171.322 359.537 171.074 359.712 170.868 359.932C170.662 360.152 170.504 360.413 170.402 360.697C170.301 360.98 170.26 361.282 170.28 361.583V402.933C170.283 403.515 170.516 404.072 170.928 404.482C171.34 404.892 171.898 405.123 172.48 405.123Z" fill="white"/>
<path d="M164.07 405.123C164.651 405.123 165.208 404.892 165.619 404.482C166.029 404.071 166.26 403.514 166.26 402.933V382.253C166.222 381.696 165.975 381.175 165.567 380.794C165.16 380.413 164.623 380.201 164.065 380.201C163.507 380.201 162.97 380.413 162.563 380.794C162.155 381.175 161.908 381.696 161.87 382.253V402.933C161.873 403.515 162.106 404.072 162.518 404.482C162.93 404.893 163.488 405.123 164.07 405.123Z" fill="white"/>
<path d="M154.75 405.123C155.332 405.123 155.89 404.893 156.302 404.482C156.714 404.072 156.947 403.515 156.95 402.933V390.663C156.97 390.362 156.929 390.061 156.828 389.777C156.726 389.493 156.568 389.233 156.362 389.012C156.156 388.792 155.908 388.617 155.631 388.497C155.355 388.377 155.056 388.315 154.755 388.315C154.454 388.315 154.155 388.377 153.879 388.497C153.603 388.617 153.354 388.792 153.148 389.012C152.942 389.233 152.784 389.493 152.683 389.777C152.581 390.061 152.54 390.362 152.56 390.663V402.933C152.56 403.514 152.791 404.071 153.201 404.482C153.612 404.892 154.169 405.123 154.75 405.123Z" fill="white"/>
<path d="M396.93 248.463C396.94 230.963 402.138 213.859 411.868 199.313C421.598 184.767 435.422 173.433 451.593 166.744C467.764 160.054 485.556 158.309 502.718 161.73C519.88 165.151 535.643 173.584 548.013 185.962C560.383 198.341 568.805 214.109 572.215 231.274C575.624 248.439 573.867 266.229 567.166 282.395C560.466 298.561 549.122 312.378 534.57 322.098C520.018 331.818 502.91 337.005 485.41 337.003C461.942 336.974 439.445 327.634 422.856 311.034C406.268 294.434 396.943 271.931 396.93 248.463ZM401.31 248.463C401.31 265.096 406.242 281.356 415.483 295.186C424.724 309.017 437.859 319.796 453.226 326.161C468.594 332.527 485.503 334.192 501.817 330.947C518.131 327.702 533.116 319.692 544.878 307.931C556.639 296.169 564.649 281.184 567.894 264.87C571.139 248.556 569.474 231.647 563.108 216.279C556.743 200.912 545.964 187.777 532.134 178.536C518.303 169.295 502.043 164.363 485.41 164.363C463.113 164.389 441.738 173.258 425.972 189.024C410.206 204.791 401.336 226.166 401.31 248.463Z" fill="white"/>
<path d="M571.13 268.263C576.631 268.263 581.09 263.804 581.09 258.303C581.09 252.802 576.631 248.343 571.13 248.343C565.629 248.343 561.17 252.802 561.17 258.303C561.17 263.804 565.629 268.263 571.13 268.263Z" fill="white"/>
<path d="M93 248.463C93.0099 230.963 98.2082 213.86 107.938 199.314C117.667 184.769 131.491 173.434 147.661 166.744C163.831 160.055 181.622 158.309 198.784 161.729C215.946 165.149 231.709 173.581 244.08 185.959C256.45 198.336 264.873 214.104 268.283 231.268C271.694 248.432 269.938 266.222 263.239 282.388C256.54 298.555 245.198 312.372 230.647 322.093C216.096 331.814 198.99 337.003 181.49 337.003C158.02 336.976 135.521 327.638 118.93 311.038C102.339 294.438 93.0133 271.932 93 248.463ZM97.39 248.463C97.39 265.096 102.322 281.356 111.563 295.186C120.804 309.017 133.939 319.796 149.306 326.161C164.674 332.527 181.583 334.192 197.897 330.947C214.211 327.702 229.196 319.692 240.958 307.931C252.719 296.169 260.729 281.184 263.974 264.87C267.219 248.556 265.554 231.647 259.188 216.279C252.823 200.912 242.044 187.777 228.213 178.536C214.383 169.295 198.123 164.363 181.49 164.363C159.193 164.389 137.818 173.258 122.052 189.024C106.286 204.791 97.4165 226.166 97.39 248.463Z" fill="white"/>
<path d="M267.21 268.263C272.711 268.263 277.17 263.804 277.17 258.303C277.17 252.802 272.711 248.343 267.21 248.343C261.709 248.343 257.25 252.802 257.25 258.303C257.25 263.804 261.709 268.263 267.21 268.263Z" fill="white"/>
<path d="M200.29 118.483V143.483C200.27 143.784 200.311 144.085 200.413 144.369C200.514 144.653 200.672 144.913 200.878 145.134C201.084 145.354 201.332 145.529 201.609 145.649C201.885 145.769 202.184 145.831 202.485 145.831C202.786 145.831 203.085 145.769 203.361 145.649C203.638 145.529 203.886 145.354 204.092 145.134C204.298 144.913 204.456 144.653 204.558 144.369C204.659 144.085 204.7 143.784 204.68 143.483V118.483C204.679 117.839 204.804 117.201 205.05 116.606C205.295 116.01 205.655 115.469 206.11 115.013L227.51 93.623C227.88 93.2038 228.077 92.6593 228.06 92.1002C228.043 91.5412 227.814 91.0095 227.419 90.6134C227.024 90.2172 226.494 89.9864 225.935 89.9677C225.376 89.9491 224.83 90.144 224.41 90.513L203 111.913C202.136 112.774 201.452 113.799 200.987 114.926C200.521 116.054 200.285 117.263 200.29 118.483Z" fill="white"/>
<path d="M219.33 72.053C219.33 74.1585 219.954 76.2167 221.123 77.9677C222.293 79.7186 223.955 81.0837 225.9 81.8903C227.845 82.697 229.985 82.9091 232.05 82.4998C234.116 82.0904 236.013 81.0781 237.504 79.5907C238.994 78.1033 240.01 76.2075 240.423 74.1429C240.836 72.0783 240.628 69.9376 239.825 67.9912C239.022 66.0448 237.66 64.3802 235.911 63.2075C234.163 62.0349 232.105 61.4069 230 61.403V65.783C231.24 65.781 232.454 66.147 233.486 66.8348C234.519 67.5225 235.324 68.5011 235.8 69.6466C236.276 70.7921 236.402 72.0531 236.161 73.27C235.92 74.4869 235.324 75.6051 234.447 76.483C233.571 77.3608 232.453 77.959 231.237 78.2017C230.02 78.4445 228.759 78.3209 227.613 77.8466C226.467 77.3724 225.487 76.5687 224.797 75.5374C224.108 74.5061 223.74 73.2935 223.74 72.053H219.33Z" fill="white"/>
<path d="M191.83 72.053C191.83 74.1593 192.455 76.2184 193.625 77.9698C194.795 79.7212 196.458 81.0862 198.404 81.8923C200.35 82.6983 202.492 82.9092 204.558 82.4983C206.624 82.0874 208.521 81.0731 210.011 79.5836C211.5 78.0942 212.514 76.1966 212.925 74.1307C213.336 72.0648 213.125 69.9234 212.319 67.9774C211.513 66.0313 210.148 64.368 208.397 63.1978C206.645 62.0276 204.586 61.403 202.48 61.403V65.783C203.72 65.781 204.934 66.147 205.966 66.8348C206.999 67.5225 207.804 68.5011 208.28 69.6466C208.756 70.7921 208.882 72.0531 208.641 73.27C208.4 74.4869 207.804 75.6051 206.927 76.483C206.051 77.3608 204.933 77.959 203.717 78.2017C202.5 78.4445 201.239 78.3209 200.093 77.8466C198.947 77.3724 197.967 76.5687 197.277 75.5374C196.588 74.5061 196.22 73.2935 196.22 72.053H191.83Z" fill="white"/>
<defs>
<linearGradient id="paint0_linear_33_287" x1="341.45" y1="511.213" x2="341.45" y2="147.503" gradientUnits="userSpaceOnUse">
<stop offset="0.04" stop-color="#4AC3FF"/>
<stop offset="0.26"/>
</linearGradient>
</defs>
</svg>
