<svg width="115" height="116" viewBox="0 0 115 116" fill="none" xmlns="http://www.w3.org/2000/svg">
<circle cx="57.4593" cy="58.0229" r="55.9594" fill="#181818" stroke="white" stroke-width="3"/>
<g clip-path="url(#clip0_75_276)">
<mask id="path-2-inside-1_75_276" fill="white">
<path d="M53.1652 36.5655C53.1968 36.5964 53.2205 36.6344 53.2341 36.6765C53.2478 36.7185 53.251 36.7632 53.2435 36.8067L52.4714 41.3081C52.4052 41.6942 52.4483 42.0911 52.5959 42.454C52.7435 42.8168 52.9897 43.1311 53.3066 43.3614C53.6235 43.5916 53.9985 43.7286 54.3892 43.7568C54.7799 43.7851 55.1707 43.7034 55.5174 43.5211L59.5599 41.3958C59.599 41.3752 59.6426 41.3645 59.6867 41.3645C59.7309 41.3645 59.7744 41.3752 59.8135 41.3958L63.8559 43.5211C64.2026 43.7034 64.5934 43.7851 64.9841 43.7568C65.3748 43.7286 65.7498 43.5916 66.0668 43.3614C66.3837 43.1311 66.6298 42.8168 66.7774 42.454C66.9251 42.0911 66.9682 41.6942 66.902 41.3081L66.1299 36.8066C66.1225 36.7631 66.1257 36.7184 66.1393 36.6764C66.153 36.6344 66.1766 36.5964 66.2083 36.5655L69.4787 33.3777C69.7592 33.1043 69.9576 32.7578 70.0515 32.3775C70.1454 31.9972 70.131 31.5982 70.01 31.2257C69.8889 30.8531 69.6661 30.5219 69.3666 30.2694C69.0671 30.0169 68.703 29.8532 68.3153 29.7969L63.7956 29.1402C63.7519 29.1338 63.7104 29.1169 63.6747 29.091C63.6389 29.065 63.6101 29.0307 63.5905 28.9911L61.5693 24.8958C61.396 24.5444 61.1278 24.2486 60.7951 24.0418C60.4624 23.835 60.0785 23.7253 59.6867 23.7253C59.295 23.7253 58.9111 23.835 58.5784 24.0418C58.2457 24.2486 57.9775 24.5444 57.8041 24.8958L55.7828 28.9912C55.7633 29.0308 55.7344 29.065 55.6987 29.091C55.663 29.1169 55.6215 29.1338 55.5779 29.1402L51.0583 29.7969C50.6706 29.8532 50.3065 30.0169 50.007 30.2693C49.7075 30.5218 49.4846 30.8531 49.3635 31.2256C49.2425 31.5982 49.2281 31.9972 49.3219 32.3775C49.4158 32.7578 49.6143 33.1043 49.8948 33.3777L53.1652 36.5655ZM51.101 31.7902C51.1152 31.741 51.1436 31.6971 51.1828 31.6641C51.2219 31.6311 51.27 31.6104 51.3209 31.6048L55.8406 30.9481C56.1774 30.8992 56.4973 30.7691 56.7727 30.569C57.0481 30.3689 57.2707 30.1049 57.4212 29.7996L59.4425 25.7042C59.465 25.6587 59.4998 25.6203 59.543 25.5935C59.5861 25.5667 59.6359 25.5524 59.6867 25.5524C59.7375 25.5524 59.7873 25.5667 59.8305 25.5935C59.8736 25.6203 59.9084 25.6587 59.9309 25.7042L61.9522 29.7996C62.1028 30.1049 62.3254 30.3689 62.6008 30.569C62.8761 30.7691 63.196 30.8992 63.5329 30.9481L68.0526 31.6048C68.1029 31.6121 68.1502 31.6334 68.189 31.6661C68.2279 31.6989 68.2568 31.7419 68.2725 31.7902C68.2882 31.8386 68.2901 31.8904 68.2779 31.9397C68.2657 31.9891 68.2399 32.034 68.2035 32.0695L64.9331 35.2575C64.6893 35.495 64.507 35.7883 64.4018 36.112C64.2966 36.4357 64.2718 36.7801 64.3293 37.1156L65.1014 41.6169C65.11 41.667 65.1043 41.7185 65.0852 41.7655C65.066 41.8126 65.0341 41.8534 64.993 41.8833C64.9519 41.9131 64.9032 41.9309 64.8525 41.9346C64.8018 41.9383 64.7511 41.9277 64.7062 41.9041L60.6637 39.7787C60.3624 39.6204 60.0271 39.5376 59.6867 39.5376C59.3464 39.5376 59.0111 39.6204 58.7098 39.7787L54.6674 41.9041C54.6224 41.9278 54.5717 41.9384 54.521 41.9348C54.4703 41.9311 54.4216 41.9134 54.3804 41.8835C54.3393 41.8536 54.3073 41.8128 54.2882 41.7656C54.269 41.7185 54.2634 41.667 54.2721 41.6169L55.0441 37.1156C55.1017 36.7801 55.0769 36.4356 54.9717 36.1119C54.8665 35.7882 54.6842 35.4949 54.4404 35.2573L51.17 32.0696C51.1321 32.0351 51.1053 31.9902 51.093 31.9405C51.0807 31.8907 51.0835 31.8383 51.101 31.7902ZM90.263 48.4786C90.5293 48.2189 90.7177 47.8899 90.8068 47.5287C90.8959 47.1676 90.8822 46.7887 90.7673 46.4349C90.6523 46.0812 90.4407 45.7666 90.1563 45.5268C89.872 45.287 89.5262 45.1316 89.1581 45.078L85.0413 44.4799C85.0145 44.476 84.9891 44.4656 84.9672 44.4497C84.9454 44.4338 84.9277 44.4128 84.9157 44.3886L83.0746 40.658C82.9099 40.3244 82.6552 40.0436 82.3392 39.8473C82.0233 39.6509 81.6588 39.5468 81.2868 39.5468C80.9148 39.5468 80.5502 39.6509 80.2343 39.8473C79.9184 40.0436 79.6637 40.3244 79.499 40.658L77.6578 44.3886C77.6459 44.4128 77.6282 44.4338 77.6064 44.4497C77.5845 44.4656 77.5591 44.476 77.5324 44.4799L73.4155 45.078C73.0473 45.1315 72.7015 45.287 72.4171 45.5267C72.1327 45.7665 71.9211 46.0811 71.8061 46.4349C71.6912 46.7887 71.6775 47.1676 71.7666 47.5287C71.8558 47.8899 72.0442 48.2189 72.3106 48.4786L75.2895 51.3825C75.3089 51.4014 75.3234 51.4246 75.3317 51.4503C75.3401 51.476 75.3421 51.5034 75.3375 51.53L74.6343 55.6302C74.5714 55.9969 74.6124 56.3738 74.7526 56.7183C74.8928 57.0629 75.1265 57.3614 75.4275 57.58C75.7284 57.7987 76.0845 57.9288 76.4555 57.9556C76.8265 57.9824 77.1976 57.905 77.5269 57.7319L81.2091 55.7961C81.2331 55.7835 81.2597 55.777 81.2867 55.777C81.3138 55.777 81.3404 55.7835 81.3643 55.7961L85.0466 57.7319C85.3759 57.905 85.7471 57.9824 86.1181 57.9556C86.4891 57.9288 86.8452 57.7987 87.1461 57.58C87.447 57.3614 87.6808 57.0629 87.821 56.7183C87.9611 56.3738 88.0021 55.9969 87.9393 55.6302L87.236 51.53C87.2315 51.5034 87.2335 51.476 87.2418 51.4503C87.2502 51.4246 87.2647 51.4014 87.284 51.3825L90.263 48.4786ZM86.0087 50.0742C85.7772 50.2998 85.6041 50.5784 85.5042 50.8858C85.4043 51.1933 85.3807 51.5204 85.4354 51.839L86.1387 55.9391C86.1439 55.9698 86.1405 56.0013 86.1288 56.0301C86.117 56.0589 86.0975 56.0839 86.0723 56.1021C86.0472 56.1204 86.0174 56.1313 85.9864 56.1336C85.9553 56.1358 85.9243 56.1293 85.8968 56.1149L82.2144 54.1791C81.9283 54.0286 81.61 53.95 81.2867 53.95C80.9635 53.95 80.6451 54.0286 80.359 54.1791L76.6769 56.1149C76.6494 56.1294 76.6183 56.1359 76.5873 56.1336C76.5562 56.1314 76.5264 56.1205 76.5013 56.1022C76.4761 56.0839 76.4565 56.059 76.4448 56.0302C76.4331 56.0013 76.4296 55.9698 76.4349 55.9391L77.1381 51.839C77.1928 51.5204 77.1692 51.1933 77.0693 50.8858C76.9694 50.5784 76.7962 50.2998 76.5647 50.0742L73.5857 47.1706C73.5634 47.1489 73.5477 47.1213 73.5402 47.0911C73.5327 47.0609 73.5339 47.0292 73.5435 46.9995C73.5531 46.9699 73.5708 46.9436 73.5946 46.9235C73.6184 46.9035 73.6474 46.8904 73.6782 46.886L77.7951 46.2878C78.115 46.2413 78.4187 46.1178 78.6802 45.9278C78.9417 45.7378 79.1531 45.487 79.2961 45.1972L81.1373 41.4666C81.1511 41.4387 81.1724 41.4152 81.1988 41.3988C81.2252 41.3824 81.2557 41.3737 81.2868 41.3737C81.3179 41.3737 81.3484 41.3824 81.3748 41.3988C81.4012 41.4152 81.4225 41.4387 81.4363 41.4666L83.2773 45.1972C83.4204 45.4871 83.6318 45.7378 83.8933 45.9278C84.1548 46.1178 84.4587 46.2414 84.7786 46.2878L88.8953 46.886C88.9261 46.8904 88.955 46.9034 88.9789 46.9234C89.0027 46.9435 89.0204 46.9698 89.0301 46.9994C89.0397 47.029 89.0409 47.0608 89.0334 47.091C89.0259 47.1212 89.0101 47.1488 88.9878 47.1705L86.0087 50.0742ZM32.0896 51.3826C32.1089 51.4015 32.1234 51.4248 32.1318 51.4505C32.1401 51.4762 32.1421 51.5035 32.1375 51.5301L31.4343 55.6304C31.3715 55.997 31.4125 56.3739 31.5526 56.7185C31.6928 57.063 31.9266 57.3615 32.2275 57.5801C32.5284 57.7988 32.8845 57.9289 33.2555 57.9557C33.6265 57.9826 33.9977 57.9051 34.3269 57.7321L38.0092 55.7962C38.0331 55.7836 38.0598 55.777 38.0868 55.777C38.1139 55.777 38.1405 55.7836 38.1645 55.7962L41.8467 57.7321C42.176 57.9051 42.5471 57.9826 42.9181 57.9557C43.2891 57.9289 43.6452 57.7988 43.9461 57.5801C44.2471 57.3615 44.4808 57.063 44.621 56.7185C44.7612 56.3739 44.8021 55.997 44.7393 55.6304L44.0361 51.53C44.0315 51.5034 44.0335 51.4761 44.0418 51.4504C44.0501 51.4247 44.0646 51.4014 44.0839 51.3825L47.063 48.4787C47.3294 48.219 47.5177 47.89 47.6068 47.5288C47.696 47.1677 47.6823 46.7888 47.5673 46.435C47.4523 46.0812 47.2407 45.7667 46.9563 45.5269C46.6719 45.2871 46.3261 45.1317 45.958 45.0782L41.8412 44.4799C41.8144 44.476 41.789 44.4656 41.7671 44.4497C41.7453 44.4338 41.7276 44.4128 41.7156 44.3886L39.8745 40.658C39.711 40.3235 39.4566 40.0419 39.1404 39.8453C38.8242 39.6488 38.4591 39.5453 38.0867 39.5467C37.7144 39.5453 37.3492 39.6488 37.033 39.8453C36.7168 40.0419 36.4623 40.3236 36.2988 40.6581L34.4577 44.3887C34.4458 44.4129 34.4281 44.4339 34.4063 44.4498C34.3844 44.4656 34.359 44.476 34.3323 44.4799L30.2154 45.078C29.8473 45.1315 29.5014 45.287 29.217 45.5267C28.9326 45.7665 28.721 46.0811 28.606 46.4349C28.4911 46.7887 28.4774 47.1676 28.5665 47.5287C28.6557 47.8899 28.8441 48.2189 29.1105 48.4786L32.0896 51.3826ZM30.3436 46.9996C30.3518 46.9692 30.3691 46.942 30.3931 46.9217C30.4172 46.9015 30.4469 46.889 30.4782 46.8861L34.595 46.288C34.9149 46.2415 35.2187 46.118 35.4803 45.928C35.7418 45.738 35.9532 45.4872 36.0963 45.1973L37.9373 41.4667C37.9511 41.4388 37.9724 41.4153 37.9988 41.3989C38.0252 41.3825 38.0557 41.3738 38.0868 41.3738C38.1179 41.3738 38.1484 41.3825 38.1748 41.3989C38.2012 41.4153 38.2225 41.4388 38.2363 41.4667L40.0775 45.1973C40.2205 45.4871 40.4319 45.7379 40.6934 45.9279C40.9548 46.1179 41.2586 46.2415 41.5785 46.288L45.6954 46.8861C45.7262 46.8906 45.7551 46.9036 45.7789 46.9236C45.8027 46.9437 45.8204 46.97 45.8301 46.9996C45.8397 47.0292 45.8409 47.0609 45.8334 47.0911C45.826 47.1213 45.8102 47.1489 45.788 47.1706L42.8089 50.0743C42.5773 50.2999 42.4042 50.5785 42.3043 50.8859C42.2044 51.1934 42.1808 51.5205 42.2355 51.8391L42.9387 55.9392C42.9439 55.9699 42.9405 56.0014 42.9288 56.0302C42.9171 56.059 42.8975 56.084 42.8724 56.1023C42.8472 56.1205 42.8174 56.1314 42.7864 56.1337C42.7554 56.1359 42.7243 56.1294 42.6968 56.115L39.0145 54.1791C38.7283 54.0286 38.4099 53.95 38.0867 53.95C37.7634 53.95 37.445 54.0286 37.1589 54.1791L33.4768 56.1149C33.4493 56.1294 33.4182 56.1359 33.3872 56.1336C33.3561 56.1314 33.3263 56.1205 33.3012 56.1022C33.276 56.0839 33.2564 56.059 33.2447 56.0302C33.233 56.0013 33.2295 55.9698 33.2348 55.9391L33.938 51.839C33.9927 51.5204 33.9691 51.1933 33.8692 50.8858C33.7693 50.5783 33.5962 50.2998 33.3646 50.0742L30.3856 47.1706C30.362 47.1498 30.3453 47.1222 30.3377 47.0916C30.3302 47.0611 30.3323 47.029 30.3436 46.9996ZM45.3466 79.5615C45.3466 79.0195 45.1859 78.4897 44.8847 78.039C44.5836 77.5884 44.1556 77.2371 43.6549 77.0297C43.1542 76.8223 42.6032 76.768 42.0716 76.8738C41.54 76.9795 41.0517 77.2405 40.6684 77.6238C40.2852 78.007 40.0242 78.4953 39.9185 79.0269C39.8127 79.5585 39.867 80.1095 40.0744 80.6102C40.2818 81.1109 40.6331 81.5389 41.0837 81.84C41.5344 82.1412 42.0642 82.3019 42.6062 82.3019C43.3327 82.3011 44.0293 82.0121 44.5431 81.4984C45.0568 80.9846 45.3458 80.288 45.3466 79.5615ZM41.6927 79.5615C41.6927 79.3808 41.7463 79.2042 41.8467 79.054C41.9471 78.9038 42.0897 78.7867 42.2566 78.7176C42.4235 78.6484 42.6072 78.6303 42.7844 78.6656C42.9616 78.7008 43.1244 78.7878 43.2521 78.9156C43.3799 79.0433 43.4669 79.2061 43.5021 79.3833C43.5374 79.5605 43.5193 79.7442 43.4501 79.9111C43.381 80.078 43.2639 80.2206 43.1137 80.321C42.9635 80.4214 42.7869 80.475 42.6062 80.475C42.364 80.4747 42.1318 80.3784 41.9606 80.2071C41.7893 80.0359 41.693 79.8037 41.6927 79.5615ZM75.9484 65.5632C75.8824 63.6721 74.2594 62.1336 72.3304 62.1336H62.4018L64.3578 56.9316C64.5164 56.5095 64.5872 56.0595 64.5657 55.6091C64.5441 55.1587 64.4308 54.7175 64.2327 54.3125C64.0345 53.9074 63.7557 53.5472 63.4133 53.2538C63.0709 52.9604 62.6722 52.74 62.2416 52.6062L62.1917 52.5907C61.5199 52.3751 60.7965 52.382 60.1289 52.6103C59.4614 52.8386 58.8853 53.2762 58.4862 53.858C56.8526 56.2432 55.0666 58.5204 53.1394 60.6754C51.5869 62.4087 49.9453 64.06 48.2211 65.6227C47.8461 65.1746 47.3774 64.8143 46.848 64.5671C46.3186 64.3199 45.7415 64.1918 45.1572 64.1918H29.4207C29.1784 64.1918 28.9461 64.2881 28.7747 64.4594C28.6034 64.6307 28.5072 64.863 28.5072 65.1053C28.5072 65.3475 28.6034 65.5799 28.7747 65.7512C28.9461 65.9225 29.1784 66.0187 29.4207 66.0187H45.1571C45.7339 66.0194 46.2869 66.2489 46.6948 66.6568C47.1026 67.0646 47.3321 67.6177 47.3327 68.1945V81.9531C47.3321 82.5299 47.1026 83.0829 46.6948 83.4908C46.2869 83.8987 45.7339 84.1281 45.1571 84.1288H29.4207C29.1784 84.1288 28.9461 84.2251 28.7747 84.3964C28.6034 84.5677 28.5072 84.8 28.5072 85.0423C28.5072 85.2845 28.6034 85.5169 28.7747 85.6882C28.9461 85.8595 29.1784 85.9557 29.4207 85.9557H45.1571C46.2011 85.9562 47.2037 85.5472 47.9496 84.8167C50.4366 85.4396 53.9738 86.0768 59.2367 86.0767C62.5984 86.0588 65.956 85.8417 69.292 85.4265C70.1563 85.3216 70.9523 84.9037 71.5296 84.2519C72.1069 83.6001 72.4255 82.7595 72.4253 81.8888V81.5575C72.4259 80.8673 72.2245 80.1921 71.8459 79.6151C72.5528 79.357 73.1599 78.8819 73.5802 78.2577C74.0005 77.6335 74.2125 76.8923 74.1858 76.1403C74.1639 75.4941 73.9636 74.8667 73.6073 74.3272C74.1861 74.1208 74.701 73.7668 75.101 73.3003C75.501 72.8339 75.7724 72.271 75.8882 71.6675C76.004 71.064 75.9603 70.4408 75.7613 69.8593C75.5624 69.2779 75.2151 68.7585 74.7539 68.3525C74.8225 68.2918 74.8888 68.2286 74.9526 68.1629C75.2861 67.8197 75.5463 67.4122 75.7174 66.9653C75.8886 66.5184 75.9673 66.0414 75.9484 65.5632ZM67.986 69.25H72.3304C73.2865 69.25 74.0906 69.9971 74.1226 70.9159C74.1313 71.1484 74.0931 71.3803 74.0101 71.5977C73.9272 71.8151 73.8012 72.0136 73.6398 72.1812C73.4784 72.3488 73.2849 72.4822 73.0707 72.5733C72.8566 72.6644 72.6263 72.7113 72.3936 72.7114H67.9859C67.7436 72.7114 67.5112 72.8076 67.3399 72.9789C67.1686 73.1502 67.0724 73.3826 67.0724 73.6248C67.0724 73.8671 67.1686 74.0995 67.3399 74.2708C67.5112 74.4421 67.7436 74.5383 67.9859 74.5383H70.5667C71.5228 74.5383 72.3272 75.2861 72.3601 76.2053C72.3687 76.4379 72.3303 76.6697 72.2472 76.8871C72.1642 77.1045 72.0381 77.3028 71.8766 77.4704C71.7151 77.6379 71.5214 77.7711 71.3072 77.862C71.0931 77.953 70.8627 77.9998 70.63 77.9997H67.9859C67.7436 77.9997 67.5112 78.096 67.3399 78.2673C67.1686 78.4386 67.0724 78.6709 67.0724 78.9132C67.0724 79.1554 67.1686 79.3878 67.3399 79.5591C67.5112 79.7304 67.7436 79.8266 67.9859 79.8266H68.8676C69.3265 79.8272 69.7664 80.0097 70.0909 80.3341C70.4153 80.6586 70.5978 81.0985 70.5984 81.5574V81.8886C70.5989 82.3125 70.4442 82.7219 70.1636 83.0394C69.8829 83.357 69.4956 83.5609 69.0749 83.6124C63.8515 84.2351 56.1996 84.8425 48.9669 83.1788C49.0948 82.7828 49.1598 82.3691 49.1596 81.9529V68.1944C49.1596 68.085 49.154 67.9768 49.1454 67.8697L49.3253 67.158C49.3403 67.0983 49.3728 67.0443 49.4184 67.003C51.2005 65.3898 52.8969 63.6843 54.5006 61.8937C56.4806 59.6796 58.3156 57.3399 59.994 54.8892C60.1738 54.631 60.432 54.4376 60.7305 54.3379C61.0289 54.2381 61.3515 54.2373 61.6504 54.3356L61.7003 54.351C61.893 54.4111 62.0715 54.5099 62.2248 54.6413C62.3781 54.7728 62.5029 54.9342 62.5916 55.1156C62.6803 55.297 62.731 55.4946 62.7406 55.6963C62.7502 55.898 62.7186 56.0995 62.6476 56.2885L60.5369 61.9021C60.4503 62.1324 60.4208 62.3804 60.451 62.6246C60.4812 62.8688 60.5702 63.1021 60.7103 63.3045C60.8504 63.5068 61.0374 63.6722 61.2554 63.7864C61.4733 63.9007 61.7158 63.9604 61.9619 63.9604H72.3303C73.2864 63.9604 74.0903 64.7079 74.1225 65.6274C74.1312 65.8599 74.0928 66.0918 74.0099 66.3092C73.9269 66.5266 73.801 66.725 73.6396 66.8926C73.4782 67.0602 73.2847 67.1936 73.0706 67.2847C72.8565 67.3758 72.6263 67.4229 72.3936 67.423H67.9859C67.7436 67.423 67.5112 67.5193 67.3399 67.6906C67.1686 67.8619 67.0724 68.0942 67.0724 68.3365C67.0724 68.5788 67.1686 68.8111 67.3399 68.9824C67.5112 69.1537 67.7437 69.25 67.986 69.25Z"/>
</mask>
<path d="M53.1652 36.5655C53.1968 36.5964 53.2205 36.6344 53.2341 36.6765C53.2478 36.7185 53.251 36.7632 53.2435 36.8067L52.4714 41.3081C52.4052 41.6942 52.4483 42.0911 52.5959 42.454C52.7435 42.8168 52.9897 43.1311 53.3066 43.3614C53.6235 43.5916 53.9985 43.7286 54.3892 43.7568C54.7799 43.7851 55.1707 43.7034 55.5174 43.5211L59.5599 41.3958C59.599 41.3752 59.6426 41.3645 59.6867 41.3645C59.7309 41.3645 59.7744 41.3752 59.8135 41.3958L63.8559 43.5211C64.2026 43.7034 64.5934 43.7851 64.9841 43.7568C65.3748 43.7286 65.7498 43.5916 66.0668 43.3614C66.3837 43.1311 66.6298 42.8168 66.7774 42.454C66.9251 42.0911 66.9682 41.6942 66.902 41.3081L66.1299 36.8066C66.1225 36.7631 66.1257 36.7184 66.1393 36.6764C66.153 36.6344 66.1766 36.5964 66.2083 36.5655L69.4787 33.3777C69.7592 33.1043 69.9576 32.7578 70.0515 32.3775C70.1454 31.9972 70.131 31.5982 70.01 31.2257C69.8889 30.8531 69.6661 30.5219 69.3666 30.2694C69.0671 30.0169 68.703 29.8532 68.3153 29.7969L63.7956 29.1402C63.7519 29.1338 63.7104 29.1169 63.6747 29.091C63.6389 29.065 63.6101 29.0307 63.5905 28.9911L61.5693 24.8958C61.396 24.5444 61.1278 24.2486 60.7951 24.0418C60.4624 23.835 60.0785 23.7253 59.6867 23.7253C59.295 23.7253 58.9111 23.835 58.5784 24.0418C58.2457 24.2486 57.9775 24.5444 57.8041 24.8958L55.7828 28.9912C55.7633 29.0308 55.7344 29.065 55.6987 29.091C55.663 29.1169 55.6215 29.1338 55.5779 29.1402L51.0583 29.7969C50.6706 29.8532 50.3065 30.0169 50.007 30.2693C49.7075 30.5218 49.4846 30.8531 49.3635 31.2256C49.2425 31.5982 49.2281 31.9972 49.3219 32.3775C49.4158 32.7578 49.6143 33.1043 49.8948 33.3777L53.1652 36.5655ZM51.101 31.7902C51.1152 31.741 51.1436 31.6971 51.1828 31.6641C51.2219 31.6311 51.27 31.6104 51.3209 31.6048L55.8406 30.9481C56.1774 30.8992 56.4973 30.7691 56.7727 30.569C57.0481 30.3689 57.2707 30.1049 57.4212 29.7996L59.4425 25.7042C59.465 25.6587 59.4998 25.6203 59.543 25.5935C59.5861 25.5667 59.6359 25.5524 59.6867 25.5524C59.7375 25.5524 59.7873 25.5667 59.8305 25.5935C59.8736 25.6203 59.9084 25.6587 59.9309 25.7042L61.9522 29.7996C62.1028 30.1049 62.3254 30.3689 62.6008 30.569C62.8761 30.7691 63.196 30.8992 63.5329 30.9481L68.0526 31.6048C68.1029 31.6121 68.1502 31.6334 68.189 31.6661C68.2279 31.6989 68.2568 31.7419 68.2725 31.7902C68.2882 31.8386 68.2901 31.8904 68.2779 31.9397C68.2657 31.9891 68.2399 32.034 68.2035 32.0695L64.9331 35.2575C64.6893 35.495 64.507 35.7883 64.4018 36.112C64.2966 36.4357 64.2718 36.7801 64.3293 37.1156L65.1014 41.6169C65.11 41.667 65.1043 41.7185 65.0852 41.7655C65.066 41.8126 65.0341 41.8534 64.993 41.8833C64.9519 41.9131 64.9032 41.9309 64.8525 41.9346C64.8018 41.9383 64.7511 41.9277 64.7062 41.9041L60.6637 39.7787C60.3624 39.6204 60.0271 39.5376 59.6867 39.5376C59.3464 39.5376 59.0111 39.6204 58.7098 39.7787L54.6674 41.9041C54.6224 41.9278 54.5717 41.9384 54.521 41.9348C54.4703 41.9311 54.4216 41.9134 54.3804 41.8835C54.3393 41.8536 54.3073 41.8128 54.2882 41.7656C54.269 41.7185 54.2634 41.667 54.2721 41.6169L55.0441 37.1156C55.1017 36.7801 55.0769 36.4356 54.9717 36.1119C54.8665 35.7882 54.6842 35.4949 54.4404 35.2573L51.17 32.0696C51.1321 32.0351 51.1053 31.9902 51.093 31.9405C51.0807 31.8907 51.0835 31.8383 51.101 31.7902ZM90.263 48.4786C90.5293 48.2189 90.7177 47.8899 90.8068 47.5287C90.8959 47.1676 90.8822 46.7887 90.7673 46.4349C90.6523 46.0812 90.4407 45.7666 90.1563 45.5268C89.872 45.287 89.5262 45.1316 89.1581 45.078L85.0413 44.4799C85.0145 44.476 84.9891 44.4656 84.9672 44.4497C84.9454 44.4338 84.9277 44.4128 84.9157 44.3886L83.0746 40.658C82.9099 40.3244 82.6552 40.0436 82.3392 39.8473C82.0233 39.6509 81.6588 39.5468 81.2868 39.5468C80.9148 39.5468 80.5502 39.6509 80.2343 39.8473C79.9184 40.0436 79.6637 40.3244 79.499 40.658L77.6578 44.3886C77.6459 44.4128 77.6282 44.4338 77.6064 44.4497C77.5845 44.4656 77.5591 44.476 77.5324 44.4799L73.4155 45.078C73.0473 45.1315 72.7015 45.287 72.4171 45.5267C72.1327 45.7665 71.9211 46.0811 71.8061 46.4349C71.6912 46.7887 71.6775 47.1676 71.7666 47.5287C71.8558 47.8899 72.0442 48.2189 72.3106 48.4786L75.2895 51.3825C75.3089 51.4014 75.3234 51.4246 75.3317 51.4503C75.3401 51.476 75.3421 51.5034 75.3375 51.53L74.6343 55.6302C74.5714 55.9969 74.6124 56.3738 74.7526 56.7183C74.8928 57.0629 75.1265 57.3614 75.4275 57.58C75.7284 57.7987 76.0845 57.9288 76.4555 57.9556C76.8265 57.9824 77.1976 57.905 77.5269 57.7319L81.2091 55.7961C81.2331 55.7835 81.2597 55.777 81.2867 55.777C81.3138 55.777 81.3404 55.7835 81.3643 55.7961L85.0466 57.7319C85.3759 57.905 85.7471 57.9824 86.1181 57.9556C86.4891 57.9288 86.8452 57.7987 87.1461 57.58C87.447 57.3614 87.6808 57.0629 87.821 56.7183C87.9611 56.3738 88.0021 55.9969 87.9393 55.6302L87.236 51.53C87.2315 51.5034 87.2335 51.476 87.2418 51.4503C87.2502 51.4246 87.2647 51.4014 87.284 51.3825L90.263 48.4786ZM86.0087 50.0742C85.7772 50.2998 85.6041 50.5784 85.5042 50.8858C85.4043 51.1933 85.3807 51.5204 85.4354 51.839L86.1387 55.9391C86.1439 55.9698 86.1405 56.0013 86.1288 56.0301C86.117 56.0589 86.0975 56.0839 86.0723 56.1021C86.0472 56.1204 86.0174 56.1313 85.9864 56.1336C85.9553 56.1358 85.9243 56.1293 85.8968 56.1149L82.2144 54.1791C81.9283 54.0286 81.61 53.95 81.2867 53.95C80.9635 53.95 80.6451 54.0286 80.359 54.1791L76.6769 56.1149C76.6494 56.1294 76.6183 56.1359 76.5873 56.1336C76.5562 56.1314 76.5264 56.1205 76.5013 56.1022C76.4761 56.0839 76.4565 56.059 76.4448 56.0302C76.4331 56.0013 76.4296 55.9698 76.4349 55.9391L77.1381 51.839C77.1928 51.5204 77.1692 51.1933 77.0693 50.8858C76.9694 50.5784 76.7962 50.2998 76.5647 50.0742L73.5857 47.1706C73.5634 47.1489 73.5477 47.1213 73.5402 47.0911C73.5327 47.0609 73.5339 47.0292 73.5435 46.9995C73.5531 46.9699 73.5708 46.9436 73.5946 46.9235C73.6184 46.9035 73.6474 46.8904 73.6782 46.886L77.7951 46.2878C78.115 46.2413 78.4187 46.1178 78.6802 45.9278C78.9417 45.7378 79.1531 45.487 79.2961 45.1972L81.1373 41.4666C81.1511 41.4387 81.1724 41.4152 81.1988 41.3988C81.2252 41.3824 81.2557 41.3737 81.2868 41.3737C81.3179 41.3737 81.3484 41.3824 81.3748 41.3988C81.4012 41.4152 81.4225 41.4387 81.4363 41.4666L83.2773 45.1972C83.4204 45.4871 83.6318 45.7378 83.8933 45.9278C84.1548 46.1178 84.4587 46.2414 84.7786 46.2878L88.8953 46.886C88.9261 46.8904 88.955 46.9034 88.9789 46.9234C89.0027 46.9435 89.0204 46.9698 89.0301 46.9994C89.0397 47.029 89.0409 47.0608 89.0334 47.091C89.0259 47.1212 89.0101 47.1488 88.9878 47.1705L86.0087 50.0742ZM32.0896 51.3826C32.1089 51.4015 32.1234 51.4248 32.1318 51.4505C32.1401 51.4762 32.1421 51.5035 32.1375 51.5301L31.4343 55.6304C31.3715 55.997 31.4125 56.3739 31.5526 56.7185C31.6928 57.063 31.9266 57.3615 32.2275 57.5801C32.5284 57.7988 32.8845 57.9289 33.2555 57.9557C33.6265 57.9826 33.9977 57.9051 34.3269 57.7321L38.0092 55.7962C38.0331 55.7836 38.0598 55.777 38.0868 55.777C38.1139 55.777 38.1405 55.7836 38.1645 55.7962L41.8467 57.7321C42.176 57.9051 42.5471 57.9826 42.9181 57.9557C43.2891 57.9289 43.6452 57.7988 43.9461 57.5801C44.2471 57.3615 44.4808 57.063 44.621 56.7185C44.7612 56.3739 44.8021 55.997 44.7393 55.6304L44.0361 51.53C44.0315 51.5034 44.0335 51.4761 44.0418 51.4504C44.0501 51.4247 44.0646 51.4014 44.0839 51.3825L47.063 48.4787C47.3294 48.219 47.5177 47.89 47.6068 47.5288C47.696 47.1677 47.6823 46.7888 47.5673 46.435C47.4523 46.0812 47.2407 45.7667 46.9563 45.5269C46.6719 45.2871 46.3261 45.1317 45.958 45.0782L41.8412 44.4799C41.8144 44.476 41.789 44.4656 41.7671 44.4497C41.7453 44.4338 41.7276 44.4128 41.7156 44.3886L39.8745 40.658C39.711 40.3235 39.4566 40.0419 39.1404 39.8453C38.8242 39.6488 38.4591 39.5453 38.0867 39.5467C37.7144 39.5453 37.3492 39.6488 37.033 39.8453C36.7168 40.0419 36.4623 40.3236 36.2988 40.6581L34.4577 44.3887C34.4458 44.4129 34.4281 44.4339 34.4063 44.4498C34.3844 44.4656 34.359 44.476 34.3323 44.4799L30.2154 45.078C29.8473 45.1315 29.5014 45.287 29.217 45.5267C28.9326 45.7665 28.721 46.0811 28.606 46.4349C28.4911 46.7887 28.4774 47.1676 28.5665 47.5287C28.6557 47.8899 28.8441 48.2189 29.1105 48.4786L32.0896 51.3826ZM30.3436 46.9996C30.3518 46.9692 30.3691 46.942 30.3931 46.9217C30.4172 46.9015 30.4469 46.889 30.4782 46.8861L34.595 46.288C34.9149 46.2415 35.2187 46.118 35.4803 45.928C35.7418 45.738 35.9532 45.4872 36.0963 45.1973L37.9373 41.4667C37.9511 41.4388 37.9724 41.4153 37.9988 41.3989C38.0252 41.3825 38.0557 41.3738 38.0868 41.3738C38.1179 41.3738 38.1484 41.3825 38.1748 41.3989C38.2012 41.4153 38.2225 41.4388 38.2363 41.4667L40.0775 45.1973C40.2205 45.4871 40.4319 45.7379 40.6934 45.9279C40.9548 46.1179 41.2586 46.2415 41.5785 46.288L45.6954 46.8861C45.7262 46.8906 45.7551 46.9036 45.7789 46.9236C45.8027 46.9437 45.8204 46.97 45.8301 46.9996C45.8397 47.0292 45.8409 47.0609 45.8334 47.0911C45.826 47.1213 45.8102 47.1489 45.788 47.1706L42.8089 50.0743C42.5773 50.2999 42.4042 50.5785 42.3043 50.8859C42.2044 51.1934 42.1808 51.5205 42.2355 51.8391L42.9387 55.9392C42.9439 55.9699 42.9405 56.0014 42.9288 56.0302C42.9171 56.059 42.8975 56.084 42.8724 56.1023C42.8472 56.1205 42.8174 56.1314 42.7864 56.1337C42.7554 56.1359 42.7243 56.1294 42.6968 56.115L39.0145 54.1791C38.7283 54.0286 38.4099 53.95 38.0867 53.95C37.7634 53.95 37.445 54.0286 37.1589 54.1791L33.4768 56.1149C33.4493 56.1294 33.4182 56.1359 33.3872 56.1336C33.3561 56.1314 33.3263 56.1205 33.3012 56.1022C33.276 56.0839 33.2564 56.059 33.2447 56.0302C33.233 56.0013 33.2295 55.9698 33.2348 55.9391L33.938 51.839C33.9927 51.5204 33.9691 51.1933 33.8692 50.8858C33.7693 50.5783 33.5962 50.2998 33.3646 50.0742L30.3856 47.1706C30.362 47.1498 30.3453 47.1222 30.3377 47.0916C30.3302 47.0611 30.3323 47.029 30.3436 46.9996ZM45.3466 79.5615C45.3466 79.0195 45.1859 78.4897 44.8847 78.039C44.5836 77.5884 44.1556 77.2371 43.6549 77.0297C43.1542 76.8223 42.6032 76.768 42.0716 76.8738C41.54 76.9795 41.0517 77.2405 40.6684 77.6238C40.2852 78.007 40.0242 78.4953 39.9185 79.0269C39.8127 79.5585 39.867 80.1095 40.0744 80.6102C40.2818 81.1109 40.6331 81.5389 41.0837 81.84C41.5344 82.1412 42.0642 82.3019 42.6062 82.3019C43.3327 82.3011 44.0293 82.0121 44.5431 81.4984C45.0568 80.9846 45.3458 80.288 45.3466 79.5615ZM41.6927 79.5615C41.6927 79.3808 41.7463 79.2042 41.8467 79.054C41.9471 78.9038 42.0897 78.7867 42.2566 78.7176C42.4235 78.6484 42.6072 78.6303 42.7844 78.6656C42.9616 78.7008 43.1244 78.7878 43.2521 78.9156C43.3799 79.0433 43.4669 79.2061 43.5021 79.3833C43.5374 79.5605 43.5193 79.7442 43.4501 79.9111C43.381 80.078 43.2639 80.2206 43.1137 80.321C42.9635 80.4214 42.7869 80.475 42.6062 80.475C42.364 80.4747 42.1318 80.3784 41.9606 80.2071C41.7893 80.0359 41.693 79.8037 41.6927 79.5615ZM75.9484 65.5632C75.8824 63.6721 74.2594 62.1336 72.3304 62.1336H62.4018L64.3578 56.9316C64.5164 56.5095 64.5872 56.0595 64.5657 55.6091C64.5441 55.1587 64.4308 54.7175 64.2327 54.3125C64.0345 53.9074 63.7557 53.5472 63.4133 53.2538C63.0709 52.9604 62.6722 52.74 62.2416 52.6062L62.1917 52.5907C61.5199 52.3751 60.7965 52.382 60.1289 52.6103C59.4614 52.8386 58.8853 53.2762 58.4862 53.858C56.8526 56.2432 55.0666 58.5204 53.1394 60.6754C51.5869 62.4087 49.9453 64.06 48.2211 65.6227C47.8461 65.1746 47.3774 64.8143 46.848 64.5671C46.3186 64.3199 45.7415 64.1918 45.1572 64.1918H29.4207C29.1784 64.1918 28.9461 64.2881 28.7747 64.4594C28.6034 64.6307 28.5072 64.863 28.5072 65.1053C28.5072 65.3475 28.6034 65.5799 28.7747 65.7512C28.9461 65.9225 29.1784 66.0187 29.4207 66.0187H45.1571C45.7339 66.0194 46.2869 66.2489 46.6948 66.6568C47.1026 67.0646 47.3321 67.6177 47.3327 68.1945V81.9531C47.3321 82.5299 47.1026 83.0829 46.6948 83.4908C46.2869 83.8987 45.7339 84.1281 45.1571 84.1288H29.4207C29.1784 84.1288 28.9461 84.2251 28.7747 84.3964C28.6034 84.5677 28.5072 84.8 28.5072 85.0423C28.5072 85.2845 28.6034 85.5169 28.7747 85.6882C28.9461 85.8595 29.1784 85.9557 29.4207 85.9557H45.1571C46.2011 85.9562 47.2037 85.5472 47.9496 84.8167C50.4366 85.4396 53.9738 86.0768 59.2367 86.0767C62.5984 86.0588 65.956 85.8417 69.292 85.4265C70.1563 85.3216 70.9523 84.9037 71.5296 84.2519C72.1069 83.6001 72.4255 82.7595 72.4253 81.8888V81.5575C72.4259 80.8673 72.2245 80.1921 71.8459 79.6151C72.5528 79.357 73.1599 78.8819 73.5802 78.2577C74.0005 77.6335 74.2125 76.8923 74.1858 76.1403C74.1639 75.4941 73.9636 74.8667 73.6073 74.3272C74.1861 74.1208 74.701 73.7668 75.101 73.3003C75.501 72.8339 75.7724 72.271 75.8882 71.6675C76.004 71.064 75.9603 70.4408 75.7613 69.8593C75.5624 69.2779 75.2151 68.7585 74.7539 68.3525C74.8225 68.2918 74.8888 68.2286 74.9526 68.1629C75.2861 67.8197 75.5463 67.4122 75.7174 66.9653C75.8886 66.5184 75.9673 66.0414 75.9484 65.5632ZM67.986 69.25H72.3304C73.2865 69.25 74.0906 69.9971 74.1226 70.9159C74.1313 71.1484 74.0931 71.3803 74.0101 71.5977C73.9272 71.8151 73.8012 72.0136 73.6398 72.1812C73.4784 72.3488 73.2849 72.4822 73.0707 72.5733C72.8566 72.6644 72.6263 72.7113 72.3936 72.7114H67.9859C67.7436 72.7114 67.5112 72.8076 67.3399 72.9789C67.1686 73.1502 67.0724 73.3826 67.0724 73.6248C67.0724 73.8671 67.1686 74.0995 67.3399 74.2708C67.5112 74.4421 67.7436 74.5383 67.9859 74.5383H70.5667C71.5228 74.5383 72.3272 75.2861 72.3601 76.2053C72.3687 76.4379 72.3303 76.6697 72.2472 76.8871C72.1642 77.1045 72.0381 77.3028 71.8766 77.4704C71.7151 77.6379 71.5214 77.7711 71.3072 77.862C71.0931 77.953 70.8627 77.9998 70.63 77.9997H67.9859C67.7436 77.9997 67.5112 78.096 67.3399 78.2673C67.1686 78.4386 67.0724 78.6709 67.0724 78.9132C67.0724 79.1554 67.1686 79.3878 67.3399 79.5591C67.5112 79.7304 67.7436 79.8266 67.9859 79.8266H68.8676C69.3265 79.8272 69.7664 80.0097 70.0909 80.3341C70.4153 80.6586 70.5978 81.0985 70.5984 81.5574V81.8886C70.5989 82.3125 70.4442 82.7219 70.1636 83.0394C69.8829 83.357 69.4956 83.5609 69.0749 83.6124C63.8515 84.2351 56.1996 84.8425 48.9669 83.1788C49.0948 82.7828 49.1598 82.3691 49.1596 81.9529V68.1944C49.1596 68.085 49.154 67.9768 49.1454 67.8697L49.3253 67.158C49.3403 67.0983 49.3728 67.0443 49.4184 67.003C51.2005 65.3898 52.8969 63.6843 54.5006 61.8937C56.4806 59.6796 58.3156 57.3399 59.994 54.8892C60.1738 54.631 60.432 54.4376 60.7305 54.3379C61.0289 54.2381 61.3515 54.2373 61.6504 54.3356L61.7003 54.351C61.893 54.4111 62.0715 54.5099 62.2248 54.6413C62.3781 54.7728 62.5029 54.9342 62.5916 55.1156C62.6803 55.297 62.731 55.4946 62.7406 55.6963C62.7502 55.898 62.7186 56.0995 62.6476 56.2885L60.5369 61.9021C60.4503 62.1324 60.4208 62.3804 60.451 62.6246C60.4812 62.8688 60.5702 63.1021 60.7103 63.3045C60.8504 63.5068 61.0374 63.6722 61.2554 63.7864C61.4733 63.9007 61.7158 63.9604 61.9619 63.9604H72.3303C73.2864 63.9604 74.0903 64.7079 74.1225 65.6274C74.1312 65.8599 74.0928 66.0918 74.0099 66.3092C73.9269 66.5266 73.801 66.725 73.6396 66.8926C73.4782 67.0602 73.2847 67.1936 73.0706 67.2847C72.8565 67.3758 72.6263 67.4229 72.3936 67.423H67.9859C67.7436 67.423 67.5112 67.5193 67.3399 67.6906C67.1686 67.8619 67.0724 68.0942 67.0724 68.3365C67.0724 68.5788 67.1686 68.8111 67.3399 68.9824C67.5112 69.1537 67.7437 69.25 67.986 69.25Z" stroke="url(#paint0_linear_75_276)" stroke-width="8" mask="url(#path-2-inside-1_75_276)"/>
</g>
<defs>
<linearGradient id="paint0_linear_75_276" x1="7.30513" y1="-7.76598" x2="107.391" y2="125.682" gradientUnits="userSpaceOnUse">
<stop stop-color="white"/>
</linearGradient>
<clipPath id="clip0_75_276">
<rect width="62.3591" height="62.3591" fill="white" transform="translate(28.5072 23.7254)"/>
</clipPath>
</defs>
</svg>
