<svg width="116" height="115" viewBox="0 0 116 115" fill="none" xmlns="http://www.w3.org/2000/svg">
<circle cx="58.0585" cy="57.4597" r="55.9594" fill="#181818" stroke="white" stroke-width="3"/>
<path d="M57.8152 66.7668C59.6322 66.7668 61.4084 66.228 62.9192 65.2185C64.4299 64.2091 65.6074 62.7743 66.3028 61.0956C66.9981 59.4169 67.18 57.5698 66.8255 55.7877C66.4711 54.0056 65.5961 52.3687 64.3113 51.0839C63.0265 49.7991 61.3896 48.9241 59.6075 48.5697C57.8254 48.2152 55.9783 48.3971 54.2996 49.0924C52.6209 49.7878 51.1861 50.9653 50.1767 52.476C49.1672 53.9868 48.6284 55.763 48.6284 57.58C48.6311 60.0156 49.5998 62.3508 51.3221 64.0731C53.0444 65.7954 55.3796 66.7641 57.8152 66.7668ZM57.8152 50.2305C59.2688 50.2305 60.6898 50.6615 61.8984 51.4691C63.107 52.2767 64.049 53.4245 64.6053 54.7674C65.1615 56.1104 65.3071 57.5881 65.0235 59.0138C64.7399 60.4394 64.0399 61.749 63.0121 62.7768C61.9843 63.8047 60.6747 64.5046 59.2491 64.7882C57.8234 65.0718 56.3457 64.9262 55.0027 64.37C53.6598 63.8137 52.512 62.8717 51.7044 61.6631C50.8968 60.4545 50.4658 59.0335 50.4658 57.58C50.468 55.6314 51.243 53.7633 52.6208 52.3855C53.9986 51.0077 55.8667 50.2327 57.8152 50.2305Z" fill="white"/>
<path d="M57.8154 60.336C57.5717 60.336 57.3381 60.2392 57.1658 60.0669C56.9935 59.8946 56.8967 59.661 56.8967 59.4173C56.8967 59.1737 56.7999 58.94 56.6276 58.7677C56.4553 58.5954 56.2217 58.4986 55.978 58.4986C55.7344 58.4986 55.5007 58.5954 55.3284 58.7677C55.1561 58.94 55.0593 59.1737 55.0593 59.4173C55.0617 59.9853 55.2395 60.5387 55.5684 61.0018C55.8972 61.4648 56.3612 61.815 56.8967 62.0043V63.092C56.8967 63.3357 56.9935 63.5694 57.1658 63.7416C57.3381 63.9139 57.5717 64.0107 57.8154 64.0107C58.059 64.0107 58.2927 63.9139 58.465 63.7416C58.6373 63.5694 58.7341 63.3357 58.7341 63.092V62.0043C59.3465 61.7886 59.8629 61.3631 60.1917 60.8031C60.5205 60.2432 60.6405 59.5849 60.5304 58.9449C60.4204 58.305 60.0874 57.7246 59.5905 57.3066C59.0936 56.8887 58.4647 56.66 57.8154 56.6613C57.6337 56.6613 57.4561 56.6074 57.305 56.5064C57.1539 56.4055 57.0362 56.262 56.9666 56.0941C56.8971 55.9263 56.8789 55.7416 56.9143 55.5634C56.9498 55.3851 57.0373 55.2215 57.1658 55.093C57.2942 54.9645 57.4579 54.877 57.6361 54.8416C57.8144 54.8061 57.9991 54.8243 58.1669 54.8938C58.3348 54.9634 58.4783 55.0811 58.5792 55.2322C58.6802 55.3833 58.7341 55.5609 58.7341 55.7426C58.7341 55.9862 58.8308 56.2199 59.0031 56.3922C59.1754 56.5645 59.4091 56.6613 59.6527 56.6613C59.8964 56.6613 60.1301 56.5645 60.3023 56.3922C60.4746 56.2199 60.5714 55.9862 60.5714 55.7426C60.5691 55.1746 60.3913 54.6212 60.0624 54.1581C59.7335 53.6951 59.2696 53.3449 58.7341 53.1556V52.0679C58.7341 51.8242 58.6373 51.5905 58.465 51.4182C58.2927 51.246 58.059 51.1492 57.8154 51.1492C57.5717 51.1492 57.3381 51.246 57.1658 51.4182C56.9935 51.5905 56.8967 51.8242 56.8967 52.0679V53.1556C56.2842 53.3713 55.7679 53.7968 55.4391 54.3568C55.1103 54.9167 54.9903 55.575 55.1003 56.2149C55.2103 56.8549 55.5433 57.4353 56.0403 57.8533C56.5372 58.2712 57.166 58.4999 57.8154 58.4986C58.059 58.4986 58.2927 58.5954 58.465 58.7677C58.6373 58.94 58.7341 59.1737 58.7341 59.4173C58.7341 59.661 58.6373 59.8946 58.465 60.0669C58.2927 60.2392 58.059 60.336 57.8154 60.336Z" fill="white"/>
<path d="M82.8201 57.5799H76.867C75.4698 53.0215 72.8292 48.9429 69.2419 45.8024L64.1377 41.3358C64.5335 41.0202 64.8339 40.6008 65.0053 40.1245C65.1766 39.6481 65.2123 39.1335 65.1082 38.6381C65.0042 38.1426 64.7646 37.6858 64.4161 37.3187C64.0675 36.9515 63.6239 36.6884 63.1345 36.5586L67.7674 29.6097C67.8781 29.4441 67.9319 29.2471 67.9208 29.0482C67.9097 28.8494 67.8343 28.6596 67.7059 28.5073C67.6829 28.4816 67.6535 28.466 67.6287 28.4421L67.6361 28.4347C66.221 27.1015 64.3529 26.3547 62.4088 26.3447C60.8748 26.3476 59.3781 26.8173 58.1176 27.6915C55.2651 26.4439 52.3033 25.1936 48.0773 28.3658C47.8894 28.5067 47.7626 28.7143 47.7229 28.9458C47.6833 29.1773 47.7338 29.4152 47.8642 29.6106L52.4971 36.5596C52.0554 36.6759 51.6501 36.9014 51.3183 37.2153C50.9865 37.5291 50.7389 37.9213 50.5982 38.3559C50.4576 38.7904 50.4283 39.2533 50.5132 39.7021C50.5982 40.1509 50.7945 40.5711 51.0842 40.9242L46.736 44.983L47.991 46.3252L52.6652 41.9623H62.0633L68.0348 47.185C71.2197 49.9746 73.6035 53.5628 74.9405 57.5799H71.3953C70.7177 57.5807 70.0681 57.8502 69.5889 58.3293C69.1098 58.8084 68.8403 59.4581 68.8395 60.1357V62.3736C68.8422 62.9744 69.0584 63.5547 69.4496 64.0107C69.0584 64.4667 68.8422 65.047 68.8395 65.6478V67.8857C68.8433 68.155 68.8898 68.422 68.9773 68.6767C68.417 68.8076 67.9172 69.1236 67.5588 69.5737C67.2004 70.0239 67.0043 70.5817 67.0022 71.1571V73.3951C67.0043 73.9704 67.2004 74.5283 67.5588 74.9784C67.9172 75.4286 68.417 75.7446 68.9773 75.8755C68.8898 76.1302 68.8433 76.3972 68.8395 76.6665V78.9044C68.8437 79.0121 68.8545 79.1195 68.8717 79.2259C67.9657 79.4898 67.0271 79.6252 66.0835 79.6283H65.9677C66.0409 79.3957 66.0799 79.1537 66.0835 78.9099V76.672C66.0808 76.0712 65.8646 75.4909 65.4735 75.0349C65.8646 74.5789 66.0808 73.9986 66.0835 73.3978V71.1599C66.0828 70.4823 65.8133 69.8326 65.3341 69.3535C64.855 68.8744 64.2053 68.6049 63.5277 68.6041H52.103C51.4254 68.6049 50.7757 68.8744 50.2966 69.3535C49.8174 69.8326 49.5479 70.4823 49.5472 71.1599V73.3978C49.5499 73.9986 49.7661 74.5789 50.1572 75.0349C49.7661 75.4909 49.5499 76.0712 49.5472 76.672V78.9099C49.5508 79.1537 49.5898 79.3957 49.663 79.6283H49.5472C48.6038 79.627 47.6653 79.4934 46.759 79.2314C46.7762 79.125 46.787 79.0176 46.7912 78.9099V76.672C46.7875 76.4027 46.7409 76.1357 46.6534 75.881C47.2137 75.7501 47.7135 75.4341 48.0719 74.984C48.4303 74.5338 48.6265 73.976 48.6285 73.4006V71.1599C48.6265 70.5845 48.4303 70.0266 48.0719 69.5765C47.7135 69.1264 47.2137 68.8103 46.6534 68.6795C46.7409 68.4248 46.7875 68.1578 46.7912 67.8885V65.6478C46.7885 65.047 46.5723 64.4667 46.1812 64.0107C46.5723 63.5547 46.7885 62.9744 46.7912 62.3736V60.1357C46.7904 59.4581 46.5209 58.8084 46.0418 58.3293C45.5626 57.8502 44.913 57.5807 44.2354 57.5799H40.5331C41.691 53.8516 43.745 50.4638 46.5156 47.7133L45.2294 46.4078C42.1058 49.5052 39.8284 53.3517 38.6149 57.5799H32.8107C32.133 57.5807 31.4834 57.8502 31.0043 58.3293C30.5251 58.8084 30.2556 59.4581 30.2549 60.1357V62.3736C30.2575 62.9744 30.4738 63.5547 30.8649 64.0107C30.4738 64.4667 30.2575 65.047 30.2549 65.6478V67.8857C30.257 68.4611 30.4531 69.019 30.8115 69.4691C31.1699 69.9192 31.6697 70.2353 32.2301 70.3662C32.1425 70.6208 32.096 70.8878 32.0922 71.1571V73.3951C32.096 73.6643 32.1425 73.9313 32.2301 74.186C31.6688 74.3171 31.1683 74.634 30.8098 75.0852C30.4513 75.5365 30.2557 76.0956 30.2549 76.672V78.9099C30.2556 79.5875 30.5251 80.2372 31.0043 80.7163C31.4834 81.1954 32.133 81.4649 32.8107 81.4657H44.2354C44.8268 81.4632 45.3986 81.2536 45.8514 80.8731C47.0444 81.2642 48.2917 81.4642 49.5472 81.4657H66.0835C67.339 81.4642 68.5863 81.2642 69.7794 80.8731C70.2321 81.2536 70.8039 81.4632 71.3953 81.4657H82.8201C83.4977 81.4649 84.1473 81.1954 84.6265 80.7163C85.1056 80.2372 85.3751 79.5875 85.3758 78.9099V76.672C85.3737 76.0966 85.1776 75.5387 84.8192 75.0886C84.4608 74.6385 83.961 74.3224 83.4007 74.1915C83.4882 73.9369 83.5348 73.6699 83.5385 73.4006V71.1599C83.5348 70.8906 83.4882 70.6236 83.4007 70.3689C83.961 70.238 84.4608 69.922 84.8192 69.4719C85.1776 69.0217 85.3737 68.4639 85.3758 67.8885V65.6478C85.3732 65.047 85.157 64.4667 84.7658 64.0107C85.157 63.5547 85.3732 62.9744 85.3758 62.3736V60.1357C85.3751 59.4581 85.1056 58.8084 84.6265 58.3293C84.1473 57.8502 83.4977 57.5807 82.8201 57.5799ZM65.0215 28.8252C63.4671 29.2245 61.8279 29.1405 60.3224 28.5845C60.9861 28.3194 61.6941 28.1828 62.4088 28.1821C63.3173 28.1946 64.2109 28.4146 65.0215 28.8252ZM57.458 29.4113C59.5241 30.3162 61.8052 31.3176 64.7918 30.7636L60.9986 36.4502H54.6321L49.8917 29.3396C52.8995 27.4122 54.9325 28.3015 57.458 29.4085V29.4113ZM53.2219 40.125C52.9783 40.125 52.7446 40.0282 52.5723 39.8559C52.4001 39.6836 52.3033 39.4499 52.3033 39.2063C52.3033 38.9626 52.4001 38.729 52.5723 38.5567C52.7446 38.3844 52.9783 38.2876 53.2219 38.2876H62.4088C62.6524 38.2876 62.8861 38.3844 63.0584 38.5567C63.2307 38.729 63.3274 38.9626 63.3274 39.2063C63.3274 39.4499 63.2307 39.6836 63.0584 39.8559C62.8861 40.0282 62.6524 40.125 62.4088 40.125H53.2219ZM46.7912 73.3978C46.7909 73.5883 46.7152 73.7709 46.5805 73.9055C46.4458 74.0402 46.2632 74.116 46.0728 74.1162H34.648C34.4576 74.116 34.275 74.0402 34.1403 73.9055C34.0056 73.7709 33.9299 73.5883 33.9296 73.3978V71.1599C33.9299 70.9694 34.0056 70.7868 34.1403 70.6522C34.275 70.5175 34.4576 70.4417 34.648 70.4415H35.767V72.2789H37.6043V70.4415H39.4417V72.2789H41.2791V70.4415H43.1164V72.2789H44.9538V70.4415H46.0728C46.2632 70.4417 46.4458 70.5175 46.5805 70.6522C46.7152 70.7868 46.7909 70.9694 46.7912 71.1599V73.3978ZM32.0922 60.1357C32.0925 59.9452 32.1683 59.7627 32.3029 59.628C32.4376 59.4933 32.6202 59.4175 32.8107 59.4173H33.9296V61.2547H35.767V59.4173H37.6043V61.2547H39.4417V59.4173H41.2791V61.2547H43.1164V59.4173H44.2354C44.4259 59.4175 44.6084 59.4933 44.7431 59.628C44.8778 59.7627 44.9536 59.9452 44.9538 60.1357V62.3736C44.9536 62.5641 44.8778 62.7467 44.7431 62.8813C44.6084 63.016 44.4259 63.0918 44.2354 63.092H32.8107C32.6202 63.0918 32.4376 63.016 32.3029 62.8813C32.1683 62.7467 32.0925 62.5641 32.0922 62.3736V60.1357ZM32.0922 65.6478C32.0925 65.4573 32.1683 65.2748 32.3029 65.1401C32.4376 65.0054 32.6202 64.9296 32.8107 64.9294H33.9296V66.7668H35.767V64.9294H37.6043V66.7668H39.4417V64.9294H41.2791V66.7668H43.1164V64.9294H44.2354C44.4259 64.9296 44.6084 65.0054 44.7431 65.1401C44.8778 65.2748 44.9536 65.4573 44.9538 65.6478V67.8857C44.9536 68.0762 44.8778 68.2588 44.7431 68.3934C44.6084 68.5281 44.4259 68.6039 44.2354 68.6041H32.8107C32.6202 68.6039 32.4376 68.5281 32.3029 68.3934C32.1683 68.2588 32.0925 68.0762 32.0922 67.8857V65.6478ZM44.9538 78.9099C44.9536 79.1004 44.8778 79.2829 44.7431 79.4176C44.6084 79.5523 44.4259 79.6281 44.2354 79.6283H32.8107C32.6202 79.6281 32.4376 79.5523 32.3029 79.4176C32.1683 79.2829 32.0925 79.1004 32.0922 78.9099V76.672C32.0925 76.4815 32.1683 76.2989 32.3029 76.1643C32.4376 76.0296 32.6202 75.9538 32.8107 75.9536H33.9296V77.7909H35.767V75.9536H37.6043V77.7909H39.4417V75.9536H41.2791V77.7909H43.1164V75.9536H44.2354C44.4259 75.9538 44.6084 76.0296 44.7431 76.1643C44.8778 76.2989 44.9536 76.4815 44.9538 76.672V78.9099ZM51.3846 71.1599C51.3848 70.9694 51.4606 70.7868 51.5953 70.6522C51.7299 70.5175 51.9125 70.4417 52.103 70.4415H53.2219V72.2789H55.0593V70.4415H56.8967V72.2789H58.734V70.4415H60.5714V72.2789H62.4088V70.4415H63.5277C63.7182 70.4417 63.9008 70.5175 64.0354 70.6522C64.1701 70.7868 64.2459 70.9694 64.2461 71.1599V73.3978C64.2459 73.5883 64.1701 73.7709 64.0354 73.9055C63.9008 74.0402 63.7182 74.116 63.5277 74.1162H52.103C51.9125 74.116 51.7299 74.0402 51.5953 73.9055C51.4606 73.7709 51.3848 73.5883 51.3846 73.3978V71.1599ZM52.103 79.6283C51.9125 79.6281 51.7299 79.5523 51.5953 79.4176C51.4606 79.2829 51.3848 79.1004 51.3846 78.9099V76.672C51.3848 76.4815 51.4606 76.2989 51.5953 76.1643C51.7299 76.0296 51.9125 75.9538 52.103 75.9536H53.2219V77.7909H55.0593V75.9536H56.8967V77.7909H58.734V75.9536H60.5714V77.7909H62.4088V75.9536H63.5277C63.7182 75.9538 63.9008 76.0296 64.0354 76.1643C64.1701 76.2989 64.2459 76.4815 64.2461 76.672V78.9099C64.2459 79.1004 64.1701 79.2829 64.0354 79.4176C63.9008 79.5523 63.7182 79.6281 63.5277 79.6283H52.103ZM70.6769 60.1357C70.6772 59.9452 70.7529 59.7627 70.8876 59.628C71.0223 59.4933 71.2049 59.4175 71.3953 59.4173H72.5143V61.2547H74.3516V59.4173H76.189V61.2547H78.0264V59.4173H79.8637V61.2547H81.7011V59.4173H82.8201C83.0105 59.4175 83.1931 59.4933 83.3278 59.628C83.4625 59.7627 83.5382 59.9452 83.5385 60.1357V62.3736C83.5382 62.5641 83.4625 62.7467 83.3278 62.8813C83.1931 63.016 83.0105 63.0918 82.8201 63.092H71.3953C71.2049 63.0918 71.0223 63.016 70.8876 62.8813C70.7529 62.7467 70.6772 62.5641 70.6769 62.3736V60.1357ZM68.8395 71.1599C68.8398 70.9694 68.9156 70.7868 69.0502 70.6522C69.1849 70.5175 69.3675 70.4417 69.558 70.4415H70.6769V72.2789H72.5143V70.4415H74.3516V72.2789H76.189V70.4415H78.0264V72.2789H79.8637V70.4415H80.9827C81.1731 70.4417 81.3557 70.5175 81.4904 70.6522C81.6251 70.7868 81.7009 70.9694 81.7011 71.1599V73.3978C81.7009 73.5883 81.6251 73.7709 81.4904 73.9055C81.3557 74.0402 81.1731 74.116 80.9827 74.1162H69.558C69.3675 74.116 69.1849 74.0402 69.0502 73.9055C68.9156 73.7709 68.8398 73.5883 68.8395 73.3978V71.1599ZM83.5385 78.9099C83.5382 79.1004 83.4625 79.2829 83.3278 79.4176C83.1931 79.5523 83.0105 79.6281 82.8201 79.6283H71.3953C71.2049 79.6281 71.0223 79.5523 70.8876 79.4176C70.7529 79.2829 70.6772 79.1004 70.6769 78.9099V76.672C70.6772 76.4815 70.7529 76.2989 70.8876 76.1643C71.0223 76.0296 71.2049 75.9538 71.3953 75.9536H72.5143V77.7909H74.3516V75.9536H76.189V77.7909H78.0264V75.9536H79.8637V77.7909H81.7011V75.9536H82.8201C83.0105 75.9538 83.1931 76.0296 83.3278 76.1643C83.4625 76.2989 83.5382 76.4815 83.5385 76.672V78.9099ZM83.5385 67.8857C83.5382 68.0762 83.4625 68.2588 83.3278 68.3934C83.1931 68.5281 83.0105 68.6039 82.8201 68.6041H71.3953C71.2049 68.6039 71.0223 68.5281 70.8876 68.3934C70.7529 68.2588 70.6772 68.0762 70.6769 67.8857V65.6478C70.6772 65.4573 70.7529 65.2748 70.8876 65.1401C71.0223 65.0054 71.2049 64.9296 71.3953 64.9294H72.5143V66.7668H74.3516V64.9294H76.189V66.7668H78.0264V64.9294H79.8637V66.7668H81.7011V64.9294H82.8201C83.0105 64.9296 83.1931 65.0054 83.3278 65.1401C83.4625 65.2748 83.5382 65.4573 83.5385 65.6478V67.8857Z" fill="white"/>
</svg>
