<svg width="116" height="115" viewBox="0 0 116 115" fill="none" xmlns="http://www.w3.org/2000/svg">
<circle cx="57.9135" cy="57.4594" r="55.9594" fill="#181818" stroke="white" stroke-width="3"/>
<path d="M70.4409 69.7643C68.5618 69.1101 66.5296 69.0684 64.6504 68.4141C64.0797 68.2193 62.9523 67.9826 62.7156 67.3284C62.4929 66.6881 62.4929 65.9365 62.4512 65.2684C62.4233 64.7394 62.4094 64.2105 62.4094 63.6815C62.4094 63.3336 63.3002 62.5958 63.4951 62.2757C64.2468 61.0229 64.3164 59.3387 64.4556 57.9189C65.6666 58.253 65.8197 56.0119 66.0285 55.3299C66.1816 54.8566 67.1142 51.5995 65.6665 52.0449C66.0145 51.4324 66.1537 50.6808 66.2512 49.9987C66.5296 48.2171 66.6409 46.2683 66.0981 44.5284C64.9706 40.9094 61.5046 38.8771 57.8438 38.7658C54.1273 38.6405 50.3969 40.4222 49.005 44.0273C48.3369 45.7811 48.3925 47.6881 48.6152 49.5255C48.7127 50.3606 48.8519 51.2932 49.2695 52.0449C47.9193 51.6412 48.6431 54.5086 48.7962 55.0097C49.0189 55.7196 49.2138 58.2669 50.4805 57.9189C50.5918 59.0464 50.7171 60.2017 51.0233 61.3013C51.2321 62.039 51.6636 62.6654 52.1647 63.2361C52.4152 63.5145 52.5405 63.5423 52.5266 63.9042C52.5127 64.99 52.5405 66.1592 52.2621 67.2171C51.9837 68.2749 49.6592 68.7204 48.7266 68.9152C46.2211 69.4303 43.9105 69.6669 41.8226 71.2259C39.3867 73.0215 38.12 75.8193 38.12 78.8398H76.816C76.816 74.7336 74.3384 71.1145 70.4409 69.7643C72.0138 70.3072 68.8819 69.2215 70.4409 69.7643ZM42.3097 73.7731C43.0892 72.9519 44.0775 72.2281 45.1493 71.8244C46.6108 71.2676 48.2673 71.2955 49.7845 70.9057C51.0372 70.5856 52.5962 70.0845 53.5706 69.1797C54.4614 68.3445 54.5588 67.064 54.6424 65.9086C54.712 64.9343 54.698 63.9738 54.698 62.9995C54.698 62.3174 53.9046 61.9277 53.5149 61.3848C52.8885 60.5357 52.8607 59.2691 52.7354 58.253C52.6797 57.8075 52.6658 57.2368 52.29 56.9306C51.8724 56.5965 51.5662 56.4156 51.3574 55.8867C51.079 55.1628 50.9816 54.3834 50.7588 53.6317C50.6196 53.1445 51.1068 52.6852 51.3017 52.2815C51.6636 51.5438 51.0372 50.4024 50.912 49.6368C50.5222 47.354 50.5361 44.8625 52.1786 43.0529C55.4775 39.4061 63.0358 40.5614 64.1215 45.6837C64.4556 47.2844 64.2468 49.1497 63.8013 50.7086C63.6065 51.3768 63.3838 51.8639 63.7735 52.5182C64.3581 53.4647 64.1076 54.0771 63.8292 55.135C63.6065 56.0119 63.3281 56.4017 62.66 56.9445C62.1032 57.39 62.1867 58.5035 62.0893 59.1438C61.9779 59.9233 61.9083 60.7445 61.435 61.3988C61.2541 61.6493 60.2658 62.4288 60.2658 62.6933C60.2658 64.2244 60.1962 65.7834 60.4607 67.3006C60.8226 69.4581 62.6321 69.9731 64.4416 70.7108C66.279 71.4207 68.4087 71.1563 70.1904 72.0332C72.0277 72.938 73.7955 74.5944 74.3244 76.6405H40.6255C40.89 75.4852 41.5303 74.6083 42.3097 73.7731C43.5903 72.4229 41.4885 74.65 42.3097 73.7731Z" fill="white"/>
<path d="M41.8921 67.9828C42.8665 67.4956 43.9244 67.3842 44.9962 67.2729C45.3859 67.2311 45.5669 66.9666 45.2746 66.5908C44.7178 65.8809 42.7969 65.7417 41.9896 65.4216C41.4885 65.2267 41.3493 65.0458 41.3075 64.489C41.2936 64.2384 41.1544 63.1249 41.3493 62.9439C41.4885 62.8047 42.3654 62.8604 42.5603 62.8326C43.3537 62.7351 44.161 62.5681 44.9126 62.2758C45.2328 62.1505 45.539 61.9974 45.8174 61.8025C46.1515 61.552 45.5669 60.9395 45.4137 60.6055C44.9405 59.5615 44.7317 58.4201 44.6621 57.2787C44.5229 55.0377 44.8709 52.7827 44.4533 50.5556C43.8269 47.1454 41.1962 45.4333 37.8416 45.4333C35.7676 45.4333 33.7214 46.1432 32.5661 47.9527C31.2855 49.9432 31.3551 52.4208 31.4247 54.6897C31.4665 55.9842 31.5222 57.2926 31.3412 58.5871C31.2577 59.1439 31.1324 59.6868 30.9375 60.2157C30.7844 60.6194 30.0049 61.6216 30.3112 61.8304C31.4665 62.6516 33.4152 62.93 34.8071 62.8187C34.8489 63.5007 34.9742 64.3776 34.7236 65.0179C34.3339 66.0201 31.4247 66.2846 30.5478 66.5769C28.098 67.3981 26.2885 69.4443 26.2885 72.1586H37.3544C37.5354 72.1586 38.2313 70.8641 38.4262 70.6553C39.4006 69.5696 40.5976 68.637 41.8921 67.9828C43.1449 67.3564 39.8599 69.0128 41.8921 67.9828ZM36.1434 69.9315H29.3368C30.3251 68.289 32.8027 68.4003 34.4313 67.8157C35.9346 67.2729 36.8951 66.3542 37.0482 64.7535C37.0621 64.5725 37.076 60.689 36.9229 60.689C35.7119 60.6472 34.4452 60.6751 33.2342 60.4941C34.1947 57.3901 33.276 54.1886 33.791 51.0567C34.1668 48.7879 35.6145 47.5351 37.9251 47.5351C40.1383 47.5351 41.7808 48.5652 42.254 50.7923C42.9222 54.0216 41.9756 57.3205 43.0057 60.5219C42.2401 60.7168 41.4328 60.7447 40.6394 60.7725C40.2496 60.7864 39.846 60.8003 39.4562 60.8143C39.2057 60.8282 39.2892 61.2597 39.2753 61.4685C39.1361 62.9857 38.5793 65.3798 39.7903 66.6047C38.454 67.4399 37.0064 68.5952 36.1434 69.9315Z" fill="white"/>
<path d="M77.4842 72.1586H88.6476C88.6476 69.4443 86.8241 67.3842 84.3743 66.5769C83.2469 66.215 81.0754 66.1036 80.2681 65.1293C79.8644 64.6421 80.0871 63.4033 80.1289 62.8187C80.7414 62.8743 81.4095 62.7769 82.0359 62.6934C82.6066 62.6099 83.1633 62.4985 83.7062 62.3036C83.9567 62.2062 84.2073 62.1088 84.4439 61.9696C84.9868 61.6494 84.7362 61.5937 84.4578 61.1205C82.9406 58.5732 83.6227 55.3439 83.5531 52.5461C83.4974 50.2216 82.8849 47.6743 80.7692 46.3659C78.8622 45.1827 76.0366 45.141 73.9904 45.9761C68.0886 48.3424 71.5684 56.1652 69.5501 60.6472C69.2021 61.3989 68.701 61.6633 69.578 62.1088C70.0652 62.3593 70.5941 62.5263 71.123 62.6516C71.9304 62.8465 72.7655 62.9578 73.6007 62.9857C73.7399 62.9857 73.6424 64.7395 73.6007 64.9205C73.4476 65.6025 71.9582 65.7974 71.4014 65.9505C70.8307 66.1036 69.8842 66.1454 69.6058 66.7439C69.1882 67.6348 70.9838 67.4121 71.4293 67.4956C72.863 67.7601 74.1296 68.5535 75.2432 69.4582C76.0644 70.1264 77.178 71.0729 77.4842 72.1586ZM77.4285 68.3864C76.7186 67.7322 75.9809 67.0919 75.1597 66.5769C76.3846 65.352 75.8139 62.9718 75.6747 61.4406C75.5912 60.5637 75.3963 60.7864 74.5194 60.7586C73.6842 60.7307 72.7377 60.7725 71.9443 60.508C72.9465 57.404 72.1252 54.2164 72.6402 51.0567C73.03 48.6765 74.6586 47.5073 77.0249 47.5073C79.1685 47.5073 80.6439 48.5791 81.0893 50.7087C81.7714 53.9241 80.7274 57.2509 81.7157 60.4523C80.5326 60.6333 79.3077 60.5915 78.1106 60.6333C77.8183 60.6472 77.8461 64.1271 77.874 64.4333C77.9714 66.0619 78.723 67.0502 80.2681 67.6765C81.9523 68.3586 84.5831 68.1776 85.6132 69.8897H79.3912C78.4029 69.9036 78.1523 69.0406 77.4285 68.3864C77.9853 68.8875 76.7326 67.7461 77.4285 68.3864Z" fill="white"/>
</svg>
